<svg id="calendar" xmlns="http://www.w3.org/2000/svg" width="12.55" height="12.55" viewBox="0 0 12.55 12.55">
  <g id="Group_5361" data-name="Group 5361">
    <g id="Group_5360" data-name="Group 5360">
      <path id="Path_46420" data-name="Path 46420" d="M11.08.98h-.588V0h-.98V.98H3.04V0h-.98V.98H1.471A1.472,1.472,0,0,0,0,2.451V11.08A1.472,1.472,0,0,0,1.471,12.55H11.08A1.472,1.472,0,0,0,12.55,11.08V2.451A1.472,1.472,0,0,0,11.08.98Zm.49,10.1a.491.491,0,0,1-.49.49H1.471a.491.491,0,0,1-.49-.49V4.608H11.57Zm0-7.452H.98V2.451a.491.491,0,0,1,.49-.49h.588v.98h.98v-.98H9.511v.98h.98v-.98h.588a.491.491,0,0,1,.49.49Z" fill="#707070"/>
    </g>
  </g>
  <g id="Group_5363" data-name="Group 5363" transform="translate(2.092 5.578)">
    <g id="Group_5362" data-name="Group 5362" transform="translate(0 0)">
      <rect id="Rectangle_1304" data-name="Rectangle 1304" width="1" height="1" transform="translate(-0.092 -0.028)" fill="#707070"/>
    </g>
  </g>
  <g id="Group_5365" data-name="Group 5365" transform="translate(3.486 5.578)">
    <g id="Group_5364" data-name="Group 5364" transform="translate(0 0)">
      <rect id="Rectangle_1305" data-name="Rectangle 1305" width="2" height="1" transform="translate(-0.486 -0.028)" fill="#707070"/>
    </g>
  </g>
  <g id="Group_5367" data-name="Group 5367" transform="translate(5.578 5.578)">
    <g id="Group_5366" data-name="Group 5366" transform="translate(0 0)">
      <rect id="Rectangle_1306" data-name="Rectangle 1306" width="1" height="1" transform="translate(0.422 -0.028)" fill="#707070"/>
    </g>
  </g>
  <g id="Group_5369" data-name="Group 5369" transform="translate(7.67 5.578)">
    <g id="Group_5368" data-name="Group 5368" transform="translate(0 0)">
      <rect id="Rectangle_1307" data-name="Rectangle 1307" width="1" height="1" transform="translate(0.33 -0.028)" fill="#707070"/>
    </g>
  </g>
  <g id="Group_5371" data-name="Group 5371" transform="translate(9.761 5.578)">
    <g id="Group_5370" data-name="Group 5370" transform="translate(0 0)">
      <rect id="Rectangle_1308" data-name="Rectangle 1308" height="1" transform="translate(0.239 -0.028)" fill="#707070"/>
    </g>
  </g>
  <g id="Group_5373" data-name="Group 5373" transform="translate(2.092 7.67)">
    <g id="Group_5372" data-name="Group 5372" transform="translate(0 0)">
      <rect id="Rectangle_1309" data-name="Rectangle 1309" width="1" height="1" transform="translate(-0.092 -0.119)" fill="#707070"/>
    </g>
  </g>
  <g id="Group_5375" data-name="Group 5375" transform="translate(3.486 7.67)">
    <g id="Group_5374" data-name="Group 5374" transform="translate(0 0)">
      <rect id="Rectangle_1310" data-name="Rectangle 1310" width="2" height="1" transform="translate(-0.486 -0.119)" fill="#707070"/>
    </g>
  </g>
  <g id="Group_5377" data-name="Group 5377" transform="translate(5.578 7.67)">
    <g id="Group_5376" data-name="Group 5376" transform="translate(0 0)">
      <rect id="Rectangle_1311" data-name="Rectangle 1311" width="1" height="1" transform="translate(0.422 -0.119)" fill="#707070"/>
    </g>
  </g>
  <g id="Group_5379" data-name="Group 5379" transform="translate(7.67 7.67)">
    <g id="Group_5378" data-name="Group 5378" transform="translate(0 0)">
      <rect id="Rectangle_1312" data-name="Rectangle 1312" width="1" height="1" transform="translate(0.33 -0.119)" fill="#707070"/>
    </g>
  </g>
  <g id="Group_5381" data-name="Group 5381" transform="translate(2.092 9.761)">
    <g id="Group_5380" data-name="Group 5380" transform="translate(0 0)">
      <rect id="Rectangle_1313" data-name="Rectangle 1313" width="1" height="1" transform="translate(-0.092 -0.211)" fill="#707070"/>
    </g>
  </g>
  <g id="Group_5383" data-name="Group 5383" transform="translate(3.486 9.761)">
    <g id="Group_5382" data-name="Group 5382" transform="translate(0 0)">
      <rect id="Rectangle_1314" data-name="Rectangle 1314" width="2" height="1" transform="translate(-0.486 -0.211)" fill="#707070"/>
    </g>
  </g>
  <g id="Group_5385" data-name="Group 5385" transform="translate(5.578 9.761)">
    <g id="Group_5384" data-name="Group 5384" transform="translate(0 0)">
      <rect id="Rectangle_1315" data-name="Rectangle 1315" width="1" height="1" transform="translate(0.422 -0.211)" fill="#707070"/>
    </g>
  </g>
  <g id="Group_5387" data-name="Group 5387" transform="translate(7.67 9.761)">
    <g id="Group_5386" data-name="Group 5386" transform="translate(0 0)">
      <rect id="Rectangle_1316" data-name="Rectangle 1316" width="1" height="1" transform="translate(0.33 -0.211)" fill="#707070"/>
    </g>
  </g>
  <g id="Group_5389" data-name="Group 5389" transform="translate(9.761 7.67)">
    <g id="Group_5388" data-name="Group 5388" transform="translate(0 0)">
      <rect id="Rectangle_1317" data-name="Rectangle 1317" height="1" transform="translate(0.239 -0.119)" fill="#707070"/>
    </g>
  </g>
</svg>
