<svg xmlns="http://www.w3.org/2000/svg" width="19.137" height="19.137" viewBox="0 0 19.137 19.137">
  <g id="Group_5326" data-name="Group 5326" transform="translate(-1497 -342)">
    <path id="Union_1" data-name="Union 1" d="M-5897.594-1856.863a4.42,4.42,0,0,1-4.407-4.407v-10.324a4.42,4.42,0,0,1,4.407-4.407h10.324a4.42,4.42,0,0,1,4.406,4.407v10.324a4.42,4.42,0,0,1-4.406,4.407Z" transform="translate(7399.001 2218)" fill="#57b2f6"/>
    <g id="statistics" transform="translate(1501 346)">
      <path id="Path_46346" data-name="Path 46346" d="M31.948,5.056a.943.943,0,0,0,.656-.267l.935.468a.928.928,0,0,0-.012.115.948.948,0,1,0,1.9,0,.936.936,0,0,0-.1-.406L36.6,3.7a.936.936,0,0,0,.406.1.949.949,0,0,0,.948-.948.934.934,0,0,0-.047-.281l1.1-.827a.947.947,0,1,0-.423-.788.934.934,0,0,0,.047.281l-1.1.827A.944.944,0,0,0,36.151,3.25L34.882,4.519a.931.931,0,0,0-1.062.171l-.935-.468a.928.928,0,0,0,.012-.115.948.948,0,1,0-.948.948Zm0,0" transform="translate(-30.347)" fill="#fff"/>
      <path id="Path_46347" data-name="Path 46347" d="M10.469,156.993h-.337v-6.678A.316.316,0,0,0,9.816,150H8.552a.316.316,0,0,0-.316.316v6.678H7.6v-4.782a.316.316,0,0,0-.316-.316H6.025a.316.316,0,0,0-.316.316v4.782H5.077V154.74a.316.316,0,0,0-.316-.316H3.5a.316.316,0,0,0-.316.316v2.254H2.549v-3.518a.316.316,0,0,0-.316-.316H.969a.316.316,0,0,0-.316.316v3.518H.316a.316.316,0,1,0,0,.632H10.469a.316.316,0,1,0,0-.632Zm0,0" transform="translate(0 -146.84)" fill="#fff"/>
    </g>
  </g>
</svg>
