<svg xmlns="http://www.w3.org/2000/svg" xmlns:xlink="http://www.w3.org/1999/xlink" width="287.163" height="275.214" viewBox="0 0 287.163 275.214">
  <defs>
    <linearGradient id="linear-gradient" x1="0.015" y1="0.5" x2="1.053" y2="0.5" gradientUnits="objectBoundingBox">
      <stop offset="0" stop-color="#312783"/>
      <stop offset="1" stop-color="#009fe3"/>
    </linearGradient>
    <linearGradient id="linear-gradient-2" x1="-1.769" y1="0.5" x2="2.844" y2="0.5" xlink:href="#linear-gradient"/>
    <linearGradient id="linear-gradient-3" x1="-0.462" y1="0.5" x2="1.099" y2="0.5" xlink:href="#linear-gradient"/>
    <linearGradient id="linear-gradient-4" x1="0.058" y1="0.5" x2="0.992" y2="0.5" xlink:href="#linear-gradient"/>
    <linearGradient id="linear-gradient-5" x1="-0.19" y1="0.5" x2="1.159" y2="0.5" xlink:href="#linear-gradient"/>
    <linearGradient id="linear-gradient-6" x1="-0.01" y1="0.5" x2="0.995" y2="0.5" xlink:href="#linear-gradient"/>
    <linearGradient id="linear-gradient-7" x1="0.034" y1="0.5" x2="1" y2="0.5" xlink:href="#linear-gradient"/>
    <linearGradient id="linear-gradient-8" x1="0.035" y1="0.5" x2="0.937" y2="0.5" xlink:href="#linear-gradient"/>
    <linearGradient id="linear-gradient-9" x1="-0.029" y1="0.5" x2="1.032" y2="0.5" xlink:href="#linear-gradient"/>
    <linearGradient id="linear-gradient-10" x1="-0.048" y1="0.5" x2="1.006" y2="0.5" xlink:href="#linear-gradient"/>
    <linearGradient id="linear-gradient-11" x1="0.027" y1="0.5" x2="1.049" y2="0.5" xlink:href="#linear-gradient"/>
    <linearGradient id="linear-gradient-12" x1="-0.059" y1="0.5" x2="0.999" y2="0.5" xlink:href="#linear-gradient"/>
    <linearGradient id="linear-gradient-13" x1="-0.193" y1="0.5" x2="0.85" y2="0.5" xlink:href="#linear-gradient"/>
    <linearGradient id="linear-gradient-14" x1="-0.507" y1="0.5" x2="1.509" y2="0.5" xlink:href="#linear-gradient"/>
    <linearGradient id="linear-gradient-15" x1="-0.133" y1="0.5" x2="0.956" y2="0.5" xlink:href="#linear-gradient"/>
    <linearGradient id="linear-gradient-16" x1="-0.151" y1="0.5" x2="0.928" y2="0.5" xlink:href="#linear-gradient"/>
    <linearGradient id="linear-gradient-17" x1="-0.101" y1="0.5" x2="1.067" y2="0.5" xlink:href="#linear-gradient"/>
    <linearGradient id="linear-gradient-18" y1="0.5" x2="1" y2="0.5" gradientUnits="objectBoundingBox">
      <stop offset="0" stop-color="#008bec"/>
      <stop offset="1" stop-color="#0077ec"/>
    </linearGradient>
    <linearGradient id="linear-gradient-20" y1="0.5" x2="1" y2="0.5" gradientUnits="objectBoundingBox">
      <stop offset="0.062" stop-color="#e38204"/>
      <stop offset="1" stop-color="#e35802"/>
    </linearGradient>
    <linearGradient id="linear-gradient-21" x1="0" y1="0.5" x2="1" y2="0.5" xlink:href="#linear-gradient-20"/>
  </defs>
  <g id="Group_4160" data-name="Group 4160" transform="translate(-563.228 -1948.453)">
    <g id="Group_4159" data-name="Group 4159" transform="translate(563.228 1948.453)">
      <circle id="Ellipse_236" data-name="Ellipse 236" cx="70.429" cy="70.429" r="70.429" transform="matrix(0.23, -0.973, 0.973, 0.23, 4.108, 208.73)" fill="#eff4f9"/>
      <circle id="Ellipse_237" data-name="Ellipse 237" cx="53.526" cy="53.526" r="53.526" transform="translate(60.663 34.665)" fill="#eff4f9"/>
      <circle id="Ellipse_238" data-name="Ellipse 238" cx="53.526" cy="53.526" r="53.526" transform="translate(153 173.484) rotate(-80.69)" fill="#eff4f9"/>
      <line id="Line_106" data-name="Line 106" x1="287.163" transform="translate(0 274.124)" fill="none" stroke="#d7e3f4" stroke-miterlimit="10" stroke-width="2.181"/>
      <g id="Group_4134" data-name="Group 4134" transform="translate(91.71 0)">
        <g id="Group_4133" data-name="Group 4133">
          <path id="Path_20487" data-name="Path 20487" d="M246.177,113.5a9.162,9.162,0,0,0-3.042.856,9.434,9.434,0,0,0-5.23,10.029l0,0-20.525,9.62L206,139.354a1.929,1.929,0,0,0-.93,2.561l1.367,2.919,0,0,1.2,2.56a1.618,1.618,0,0,0,2.157.776l.259-.121a1.621,1.621,0,0,0,.783-2.155l-1.2-2.56,1.851-.867,1.2,2.56a1.622,1.622,0,0,0,2.158.776l.337-.158a1.621,1.621,0,0,0,.783-2.154l-1.2-2.56,1.861-.877,1.166,2.475a1.677,1.677,0,0,0,2.037.927,1.618,1.618,0,0,0,.937-2.221l-1.2-2.56,20.524-9.619a9.442,9.442,0,0,0,15.481-10.594A9.517,9.517,0,0,0,246.177,113.5Zm7.276,8.671a2.419,2.419,0,1,1-3.1-3.453,2.387,2.387,0,0,1,1.4-.2l0,0a2.423,2.423,0,0,1,1.691,3.652Z" transform="translate(-204.887 -113.451)" fill="#e2ebf7"/>
          <path id="Path_20488" data-name="Path 20488" d="M254.337,118.46A9.441,9.441,0,0,1,241.743,131.3c3.462.039,6.989-.865,9.19-3.943a6.6,6.6,0,0,0,1.285-5.18,2.423,2.423,0,0,0-1.691-3.652l0,0a21.8,21.8,0,0,0-5.581-5.021A9.517,9.517,0,0,1,254.337,118.46Z" transform="translate(-203.651 -113.451)" fill="#e2ebf7"/>
        </g>
      </g>
      <g id="Group_4140" data-name="Group 4140" transform="translate(196.27 30.802)">
        <g id="Group_4139" data-name="Group 4139">
          <g id="Group_4138" data-name="Group 4138">
            <g id="Group_4136" data-name="Group 4136">
              <g id="Group_4135" data-name="Group 4135">
                <path id="Path_20489" data-name="Path 20489" d="M332.479,143.8a4.753,4.753,0,0,0-1.565-.5,4.9,4.9,0,0,0-5.138,2.858v0l-11.658-1.693-6.47-.936a1,1,0,0,0-1.136.845l-.241,1.658h0l-.211,1.454a.839.839,0,0,0,.714.954l.147.022a.843.843,0,0,0,.956-.712l.211-1.453,1.051.152-.211,1.454a.843.843,0,0,0,.714.954l.191.028a.842.842,0,0,0,.956-.711l.212-1.454,1.058.151-.2,1.408a.87.87,0,0,0,.619.985.84.84,0,0,0,1.042-.7l.211-1.453,11.658,1.692a4.907,4.907,0,0,0,9.747-.172A4.944,4.944,0,0,0,332.479,143.8Zm.679,5.844a1.259,1.259,0,1,1,.308-2.069h0a1.259,1.259,0,0,1-.31,2.069Z" transform="translate(-306.055 -143.254)" fill="#e2ebf7"/>
              </g>
            </g>
            <g id="Group_4137" data-name="Group 4137" transform="translate(19.948 0.543)">
              <path id="Path_20490" data-name="Path 20490" d="M334.492,148.618a4.907,4.907,0,0,1-9.136,1.971,5.481,5.481,0,0,0,5.116.916,3.435,3.435,0,0,0,2.039-1.881,1.259,1.259,0,0,0,.31-2.069h0a11.333,11.333,0,0,0-.987-3.774A4.944,4.944,0,0,1,334.492,148.618Z" transform="translate(-325.356 -143.78)" fill="#e2ebf7"/>
            </g>
          </g>
        </g>
      </g>
      <g id="Group_4147" data-name="Group 4147" transform="translate(84.729 38.247)">
        <path id="Path_20539" data-name="Path 20539" d="M7.244,0h145.4c4,0,7.244,3.64,7.244,8.131v145.71c0,4.491-3.243,8.131-7.244,8.131H7.244c-4,0-7.244-3.64-7.244-8.131V8.131C0,3.64,3.243,0,7.244,0Z" transform="translate(0 0)" fill="#d9ecfa"/>
        <g id="Group_4144" data-name="Group 4144" transform="translate(25.481 71.704)">
          <g id="Group_4143" data-name="Group 4143">
            <rect id="Rectangle_1090" data-name="Rectangle 1090" width="109.126" height="15.65" rx="4" fill="#57b2f6"/>
            <path id="Path_20540" data-name="Path 20540" d="M3.345,0H105.781a3.345,3.345,0,0,1,3.345,3.345V12.3a3.345,3.345,0,0,1-3.345,3.345H3.345A3.345,3.345,0,0,1,0,12.3V3.345A3.345,3.345,0,0,1,3.345,0Z" transform="translate(0 18.576)" fill="#57b2f6"/>
            <rect id="Rectangle_1092" data-name="Rectangle 1092" width="109.126" height="19.831" rx="4" transform="translate(0 46.384)" fill="#039"/>
          </g>
        </g>
        <g id="Group_4161" data-name="Group 4161" transform="translate(61.045 18.424)">
          <g id="Group_2611" data-name="Group 2611">
            <path id="Path_3640" data-name="Path 3640" d="M388.127,270.361c.371.832,3.831.4,3.65-.653C391.588,268.608,387.673,269.342,388.127,270.361Z" transform="translate(-371.053 -269.161)" fill-rule="evenodd" fill="url(#linear-gradient)"/>
            <path id="Path_3641" data-name="Path 3641" d="M279.759,270.348c-.6-.018-4.993,1.895-4.9,2.247.373.286,4.872-2.081,4.926-2.191C279.791,270.372,279.779,270.363,279.759,270.348Z" transform="translate(-265.516 -270.268)" fill-rule="evenodd" fill="url(#linear-gradient-2)"/>
            <path id="Path_3642" data-name="Path 3642" d="M346.569,272.47c-.2-.078-1.909.378-1.842.719C344.835,273.508,347.193,272.721,346.569,272.47Z" transform="translate(-330.636 -272.237)" fill-rule="evenodd" fill="url(#linear-gradient-3)"/>
            <path id="Path_3643" data-name="Path 3643" d="M464.675,280.451c-1.016,1.307,1.379,2.522,2.313,2.661a4.428,4.428,0,0,0,2.635-.152c2.818-.582,4.28,3.119,6.659,4.055.188.074.46.083.571-.065.168-.225-.042-.706-.092-.9-.238-.936-2.906-3.875-3.937-3.719a4.239,4.239,0,0,1-3.38-1.185C468.248,280.313,465.827,278.97,464.675,280.451Z" transform="translate(-442.201 -279.065)" fill-rule="evenodd" fill="url(#linear-gradient-4)"/>
            <path id="Path_3644" data-name="Path 3644" d="M183.74,311.851c-4.235,1.4-4.628,3.015-7.783,5.536a2.248,2.248,0,0,0-.557.549c.02.113.262-.169.361-.235,1.968-1.44,2.451,1.556,4.32,1.886,2.08.261,4.038-1.04,5.444-2.448.89-.891,1.895-2.528,1.559-3.837C186.705,311.819,185.077,311.441,183.74,311.851Z" transform="translate(-172.825 -308.804)" fill-rule="evenodd" fill="url(#linear-gradient-5)"/>
            <path id="Path_3645" data-name="Path 3645" d="M401.229,352.948c-1.655.014-3.2.87-3.205,2.4.063,1.509.917,2.288,2.542,2.567,1.4.22,3.513-.968,3.423-2.765A2.648,2.648,0,0,0,401.229,352.948Z" transform="translate(-380.311 -347.251)" fill-rule="evenodd" fill="url(#linear-gradient-6)"/>
            <path id="Path_3646" data-name="Path 3646" d="M531.934,385.353c-.929,1.225-.462,2.582.427,3.689a2.966,2.966,0,0,0,3.458.967c3.359-1.283,3.771,2.341,5.231,3.968,1.251,1.248,2.2.372,2.2-1.141-.015-1.933-.89-4.908-3.371-4.055-1.024.314-2.432-.994-2.983-1.712a12.561,12.561,0,0,0-1.529-1.607C534.529,384.666,532.726,384.309,531.934,385.353Z" transform="translate(-504.643 -376.85)" fill-rule="evenodd" fill="url(#linear-gradient-7)"/>
            <path id="Path_3647" data-name="Path 3647" d="M152.148,440.117c-2.295-.137-7.511,4.637-11.18,2.38-.6-.367-.976-1.468-1.489-1.378-2.121.372-2.653,8.561-.9,8.167,1.384-.312,1.052-3.391,3.8-4.47,5.087-2,6.033,3.857,9.663,3.4C156.707,447.233,156.9,440.439,152.148,440.117Z" transform="translate(-137.527 -428.49)" fill-rule="evenodd" fill="url(#linear-gradient-8)"/>
            <path id="Path_3648" data-name="Path 3648" d="M455.872,489.5c-1.62.673-1.944,3.1-.925,4.506a2.308,2.308,0,0,0,2.462,1.011c1.474-.373,2.523-1.538,3.383-.172.72,1.118,1.443,3.072,3.133,1.721,1.221-.976,1.075-3.523-.521-3.916-1.119-.276-1.457.894-2.913-.082a2.834,2.834,0,0,1-.865-1.412A2.688,2.688,0,0,0,455.872,489.5Z" transform="translate(-432.821 -474.277)" fill-rule="evenodd" fill="url(#linear-gradient-9)"/>
            <path id="Path_3649" data-name="Path 3649" d="M156.331,583.082c-.767,3.651-2.053.211-2.417.7-.488.65,1.848,6.3,3.21,6.537.132.023.179-.129.157-.261-.112-.812-1.277-2.682-.605-3.279.753-.67,2.141,1.69,3.245,1.341a.841.841,0,0,0,.231-.144c1.2-.954.164-6.18-2.021-6.925C156.816,580.6,156.451,582.1,156.331,583.082Z" transform="translate(-152.738 -559.765)" fill-rule="evenodd" fill="url(#linear-gradient-10)"/>
            <path id="Path_3650" data-name="Path 3650" d="M279.6,587.672c.745,1.909,2.376,3.211,3.9,1.263,1.2-1.536,2.121-.4,3,.684.8.978,1.981.242,2.556-.566a2.646,2.646,0,0,0,.288-2.517c-1.126-2.586-3.134.209-4.395-.213-.936-.314-1.253-1.2-1.812-1.925C281.322,582.13,278.411,584.624,279.6,587.672Z" transform="translate(-269.682 -562.144)" fill-rule="evenodd" fill="url(#linear-gradient-11)"/>
            <path id="Path_3651" data-name="Path 3651" d="M639.279,594.5c-.08.416-.059,1.144.536,1.267.66.137,1.147-1.3.984-1.838C640.447,592.774,639.469,593.563,639.279,594.5Z" transform="translate(-605.13 -571.308)" fill-rule="evenodd" fill="url(#linear-gradient-12)"/>
            <path id="Path_3652" data-name="Path 3652" d="M447.424,643.973c-.177.583-.1,1.459.553,1.7,1.281.468,2.952-2.174,1.307-2.822A1.491,1.491,0,0,0,447.424,643.973Z" transform="translate(-426.275 -617.373)" fill-rule="evenodd" fill="url(#linear-gradient-13)"/>
            <path id="Path_3653" data-name="Path 3653" d="M203.463,671c.017.013.029.018.039.039h0c-.022-.01-.036-.014-.044-.039Z" transform="translate(-198.971 -643.673)" fill-rule="evenodd" fill="url(#linear-gradient-14)"/>
            <path id="Path_3654" data-name="Path 3654" d="M497.749,671.511a1.114,1.114,0,0,0-.048.64c.153.583.847.461,1.246.226a1.615,1.615,0,0,0,.727-.862C500.1,670.325,498.388,669.967,497.749,671.511Z" transform="translate(-473.186 -643.195)" fill-rule="evenodd" fill="url(#linear-gradient-15)"/>
            <path id="Path_3655" data-name="Path 3655" d="M535.445,694.485c-.062.173-.061.393.074.479.3.192.746-.221.828-.436C536.62,693.806,535.63,693.964,535.445,694.485Z" transform="translate(-508.351 -665.149)" fill-rule="evenodd" fill="url(#linear-gradient-16)"/>
            <path id="Path_3656" data-name="Path 3656" d="M192.092,717.306c.006.015,0,.006,0,.026l-.035.017-.009,0C192.059,717.317,192.069,717.316,192.092,717.306Z" transform="translate(-188.345 -686.834)" fill-rule="evenodd" fill="url(#linear-gradient-17)"/>
          </g>
        </g>
      </g>
      <g id="Group_4153" data-name="Group 4153" transform="translate(24.191 67.223)">
        <path id="Path_20507" data-name="Path 20507" d="M152.019,274.492l26.66-1.108,1.168-45.61-3.312-9.237-11.043-3.8-7.73-1.429a9.3,9.3,0,0,0-7.555,9.465l2.891,32.28Z" transform="translate(-139.2 -177.327)" fill="#f7d6b2"/>
        <path id="Path_20508" data-name="Path 20508" d="M162.313,206.406v9.165s1.937,1.157,6.469,1.157c2.443,0,2.992.422,2.992.422v-4.966Z" transform="translate(-138.794 -177.558)" fill="#f7d6b2"/>
        <path id="Path_20509" data-name="Path 20509" d="M161.282,200.222c.021.332.032.643.054.943,0,.107-.011.214-.011.332-.224,5.44,3.267,11.266,8.524,12.059,0,0,.043.01.118.022.043,0,.107.01.182.01,1.124.14,5.194.471,6.683-1.167a13.849,13.849,0,0,0,3.3-7.876,30.984,30.984,0,0,0-.438-3.959c0-.761.408-3.14.417-4.172.034-4.855-3.233-9.674-9.037-9.674C162.363,186.739,161.035,194.376,161.282,200.222Z" transform="translate(-138.829 -178.217)" fill="#f7d6b2"/>
        <path id="Path_20510" data-name="Path 20510" d="M171.463,214.973" transform="translate(-138.487 -177.271)" fill="#6ebaad"/>
        <g id="Group_4149" data-name="Group 4149" transform="translate(0 37.609)">
          <path id="Path_20511" data-name="Path 20511" d="M141.532,251.544c2.859,1.189,11.3-14.777,14.386-21.82s4.251-13.142.761-14.594-6.992,3.678-9.813,10.828S138.674,250.354,141.532,251.544Z" transform="translate(-139.518 -214.884)" fill="#f7d6b2"/>
          <g id="Group_4148" data-name="Group 4148" transform="translate(0 30.796)">
            <path id="Path_20512" data-name="Path 20512" d="M142.655,282.311c2.745.043,3.819-20.146,3.91-25.85s-.236-11.731-3.313-11.78-3.595,5.965-3.685,11.669S139.91,282.268,142.655,282.311Z" transform="translate(-139.557 -244.681)" fill="#f7d6b2"/>
            <path id="Path_20513" data-name="Path 20513" d="M142.863,276.033c-3.231-.29-3.1,5.465-2.981,7.427.191,3.195,3.5,6.311,4.741,6.255s.265-7.257.536-7.514.42,3.654,1.58,3.48.75-4.918-.132-6.733S144.888,276.216,142.863,276.033Z" transform="translate(-139.547 -243.63)" fill="#f7d6b2"/>
          </g>
        </g>
        <path id="Path_20514" data-name="Path 20514" d="M160.918,220.813a38.5,38.5,0,0,1-4.008,9.466c-2.218,4.061-4.218,7.545-5.519,9.788-.8,1.38-1.345,2.28-1.511,2.559-.034.061-.052.1-.052.1l-7.711-3.152s4.575-19.037,11.737-24.888a7.1,7.1,0,0,1,.952-.41C158.849,215.041,161.765,216.647,160.918,220.813Z" transform="translate(-139.471 -177.295)" fill="#57b2f6"/>
        <path id="Path_20515" data-name="Path 20515" d="M168.032,269.276c-2.657,1.007-4.137,5.224-3.239,9.148a58.426,58.426,0,0,0,4.185,11.817c5.521,11.7,9.793,27.352,13.709,27.3s5.214-9.763,1.377-22.407c-3.467-11.428-6.645-26.415-9.528-27.159C173.074,267.595,170.358,268.395,168.032,269.276Z" transform="translate(-138.72 -175.498)" fill="#f7d6b2"/>
        <g id="Group_4150" data-name="Group 4150" transform="translate(38.759 139.395)">
          <path id="Path_20516" data-name="Path 20516" d="M183.556,313.516c-10.639-3.258-5.824,48.216-2.253,57.358s4.912-15.25,5.555-31.028S187.741,314.8,183.556,313.516Z" transform="translate(-177.059 -313.368)" fill="#f7d6b2"/>
        </g>
        <path id="Path_20517" data-name="Path 20517" d="M178.487,357.932c.121.161.888,14.206.888,14.206s6.78.485,6.78,0,.525-12.672.525-12.672Z" transform="translate(-138.252 -172.479)" fill="#f7d6b2"/>
        <path id="Path_20518" data-name="Path 20518" d="M155.318,357.932c.121.161.888,14.206.888,14.206s6.78.485,6.78,0,.525-12.672.525-12.672Z" transform="translate(-139.028 -172.479)" fill="#f7d6b2"/>
        <path id="Path_20519" data-name="Path 20519" d="M155.557,269.065c-2.8.472-5.071,4.324-4.951,8.347a58.342,58.342,0,0,0,1.815,12.4c3.148,12.551,4.306,28.731,8.159,29.435s7.006-8.567,5.693-21.714c-1.188-11.883-1.4-27.2-4.083-28.491C160.829,268.392,158.008,268.65,155.557,269.065Z" transform="translate(-139.186 -175.472)" fill="#f7d6b2"/>
        <g id="Group_4151" data-name="Group 4151" transform="translate(15.545 140.446)">
          <path id="Path_20520" data-name="Path 20520" d="M161.919,314.583c-10.462-3.789-7.542,47.88-4.435,57.19s4.974-15,6.409-30.727S166.035,316.074,161.919,314.583Z" transform="translate(-154.598 -314.385)" fill="#f7d6b2"/>
        </g>
        <path id="Path_20521" data-name="Path 20521" d="M180.122,269.684s9.465,39.86,9.25,48.254-1.824,52.279-1.824,52.279-7.552.033-7.558,0c-5.827-31.684-3.419-50.543-4.065-54.094s-7.748-18.726-7.748-18.726-.324,17.434-.324,22.277-4.358,50.221-4.358,50.221l-7.815.161s-2.517-31.01-2.517-37.306,1.534-16.144,1.453-17.434-12.269-32.932-4.2-45.2C161.032,253.982,180.122,269.684,180.122,269.684Z" transform="translate(-139.285 -175.667)" fill="#039"/>
        <path id="Path_20522" data-name="Path 20522" d="M183.868,227.927a8.733,8.733,0,0,1-.183,2.008c-.079.376-.175.812-.323,1.346-.4,1.519-1.118,3.79-2.384,7.614-3.423,10.323-.375,32.6-.332,32.817,0,0-31.07.751-31-.149.5-6.138,5.24-11.6,1.2-33.175-3.319-17.745,1.091-24.494,4.986-24.957,7.676-.917,21.22,3.66,23.071,5.379S183.807,224.1,183.868,227.927Z" transform="translate(-139.219 -177.327)" fill="#57b2f6"/>
        <path id="Path_20523" data-name="Path 20523" d="M210.938,218.511c-.419-3.042-18.312-2.251-25.881-1.352s-13.373,2.961-12.862,6.674,6.655,4.134,14.186,2.959S211.355,221.554,210.938,218.511Z" transform="translate(-138.464 -177.225)" fill="#eed7ba"/>
        <path id="Path_20524" data-name="Path 20524" d="M197.5,224.934s-8.219,3.162-14.565,4.908c-3.885,1.069-7.37.664-8.139-1.642-.018-.061-.122-.043-.183-.069-3.956-1.554-5.2-8.166-1.314-9.887,2.245-1,7.04-.859,11.216-1.169,8.133-.6,11.081-.716,11.081-.716l1.8,8.1Z" transform="translate(-138.505 -177.225)" fill="#57b2f6"/>
        <path id="Path_20525" data-name="Path 20525" d="M182.1,193.471a9.52,9.52,0,0,1-1.394,4.253c-2.7,4.644-4.253,9.022-4.175,14.477.092,6.534,4.013,14.323-.038,20.369-5.9,8.806-21.056,8.176-27.652.824-4.409-4.915-5.423-12.871-.249-17.721,2.233-2.094,4.324-4.093,5.614-6.906,3.6-7.85,3.164-20.463,13.166-23.663C172.968,183.313,182.5,186.439,182.1,193.471Z" transform="translate(-139.371 -178.289)" fill="#1d262d"/>
        <path id="Path_20526" data-name="Path 20526" d="M186.2,370.3s.715,2.076,5.035,4.778,5.453,2.114,5.55,3.124-17.958.179-17.958.179l.282-8.312S186.2,370.087,186.2,370.3Z" transform="translate(-138.24 -172.072)" fill="url(#linear-gradient-18)"/>
        <path id="Path_20527" data-name="Path 20527" d="M163.019,370.076a18.334,18.334,0,0,0,3.729,4.562c2.57,2.489,4.841,1.956,4.633,2.846-.2.855-15.465.3-15.465.3v-7.709Z" transform="translate(-139.008 -172.072)" fill="url(#linear-gradient-18)"/>
        <g id="Group_4152" data-name="Group 4152" transform="translate(83.775 0) rotate(65)">
          <path id="Path_20528" data-name="Path 20528" d="M.192.179C-1.757,2.08,11.7,16.938,15.656,20.987s8.422,8.028,10.606,5.9-1.689-6.7-5.64-10.744S2.14-1.723.192.179Z" transform="translate(6.374 5.331)" fill="#eed7ba"/>
          <path id="Path_20529" data-name="Path 20529" d="M.094.322c-.758.754,3.261,4.43,4.312,5.625.159.181.254.308.25.357s-.07.05-.169.022c-.62-.169-2.835-1.584-3.467-.806-.7.856,2.365,3.754,4.271,4.69.105.052.221.122.319.161,1.859.742,3.084.856,4.691-.362,2.564-1.943-1.376-6.075-2.77-7.436A10.032,10.032,0,0,0,3.14.259C1.739-.1.516-.1.094.322Z" fill="#eed7ba"/>
        </g>
        <path id="Path_20530" data-name="Path 20530" d="M151.174,239.335l-.035.079c-.8,1.38-1.345,2.28-1.511,2.559l.822-8.2A42.68,42.68,0,0,0,151.174,239.335Z" transform="translate(-139.219 -176.641)" opacity="0.5" fill="url(#linear-gradient-20)" style="mix-blend-mode: multiply;isolation: isolate"/>
        <path id="Path_20531" data-name="Path 20531" d="M182.782,229.4c-.079.376-.175.812-.323,1.346-1.947,1.17-5.863.265-5.863.265l6.151-1.6S182.755,229.4,182.782,229.4Z" transform="translate(-138.315 -176.788)" opacity="0.5" fill="url(#linear-gradient-21)" style="mix-blend-mode: multiply;isolation: isolate"/>
      </g>
      <g id="Group_4158" data-name="Group 4158" transform="translate(213.399 175.711)">
        <g id="Group_4155" data-name="Group 4155" transform="translate(0 6.767)">
          <path id="Path_20532" data-name="Path 20532" d="M354.26,358.24a41.428,41.428,0,0,0-.1,11.7,18.008,18.008,0,0,1,.14,3.284c-.064,1.142-.295,2.433-1.258,3.043-1.473.933-3.336-.41-4.379-1.8-4.547-6.069-4.817-14.085-8.693-20.495-.6-.986-1.253-1.962-1.93-2.941l1.136-4.341-2.365,2.569c-2.7-3.9-5.317-7.944-5.29-12.8l3.467.295s-1.826-.749-3.439-1.38c.132-3.273.547-6.653-.6-9.734-.836-2.233-2.462-4.021-4-5.876l2.273-3.381s-2.156.678-4.034,1.064c-.144-.216-.281-.437-.413-.66-2.048-3.491-2.27-7.5-2.1-11.438a53.733,53.733,0,0,1,.618-6.633c.834.047,1.543.081,1.543.081l-1.228-1.688a22.711,22.711,0,0,1,1.059-3.448c.31-.776,1.446-3.5,2.437-3.614,2.862-.322,5.25,2.293,6.271,4.985.967,2.549,1.411,5.1,2.5,7.483l-1.39,1.474,2.373.315c.115.179.234.352.362.526,2.92,3.992,8.071,7.1,11.064,11.01-2.286.622-4.454,1.38-4.454,1.38l6.314,1.971a9.9,9.9,0,0,1-.662,7.6c-.438.96-.923,1.879-1.358,2.806l-1.677-1.134,1.168,2.315a9.762,9.762,0,0,0-.781,3.9c.1,4.183,2.712,7.684,4.839,11.31-.365,1.151-.682,2.163-.682,2.163l1.778-.174a17.243,17.243,0,0,1,1.173,2.9A16.887,16.887,0,0,1,354.26,358.24Z" transform="translate(-322.628 -290.011)" fill="#02b01d"/>
          <g id="Group_4154" data-name="Group 4154" transform="translate(5.862 7.994)">
            <path id="Path_20533" data-name="Path 20533" d="M348.439,364.41c-.933-10.05-3.687-14.453-6.116-18.337a25.23,25.23,0,0,1-2.948-5.766,32.941,32.941,0,0,1-.96-8.595c-.156-5.219-.317-10.615-3.534-14.1-5.485-5.947-6.579-19.715-6.581-19.846l.957-.016-.479.007.479-.009c0,.128,1.026,13.469,6.327,19.215,3.458,3.75,3.626,9.329,3.787,14.723a32.32,32.32,0,0,0,.916,8.333,24.1,24.1,0,0,0,2.847,5.549c2.363,3.779,5.3,8.48,6.257,18.755Z" transform="translate(-328.3 -297.746)" fill="#02b01d" style="mix-blend-mode: screen;isolation: isolate"/>
          </g>
        </g>
        <g id="Group_4156" data-name="Group 4156" transform="translate(18.464)">
          <path id="Path_20534" data-name="Path 20534" d="M357.966,367.293a10.9,10.9,0,0,0,4.186-3.333c2.867-4.271,2.551-10.008,3.356-14.879.958-5.795,3.545-11.519,8.131-15.192,3.719-2.979,6.216-6.288,6.995-11.143.767-4.773.267-9.632.784-14.426a75.042,75.042,0,0,1,3.04-14.784c1.3-4.087,2.67-10.913-4.107-9.987a10.944,10.944,0,0,0-6.923,3.882c-4.5,5.517-4.112,13.338-7.466,19.435-1.694,3.079-4.307,5.367-6.8,7.79-2.233,2.176-4.592,4.781-5.062,7.986-.274,1.862-.055,3.787-.488,5.619-.606,2.557-2.375,4.553-3.982,6.542a38.045,38.045,0,0,0-4.237,6.871c-3.121,6.115-6.2,13.925-4.341,20.82a9.507,9.507,0,0,0,3.2,5.236C347.974,370.523,354.129,369.207,357.966,367.293Z" transform="translate(-340.493 -283.463)" fill="#57ca79"/>
          <path id="Path_20535" data-name="Path 20535" d="M360.111,318.587" transform="translate(-339.835 -282.286)" fill="#57ca79" stroke="#fff" stroke-linecap="round" stroke-miterlimit="10" stroke-width="1.2"/>
          <path id="Path_20536" data-name="Path 20536" d="M357.678,322.536a.62.62,0,0,1,.7.527l1.785,12.721,11.354-22.331a.62.62,0,0,1,1.1.562l-8.3,16.33,11.556-8.095a.62.62,0,0,1,.711,1.016l-13.123,9.192a.606.606,0,0,1-.269.1l-10.833,21.306,7.931-3.6a.62.62,0,0,1,.513,1.13l-8.87,4.022a.618.618,0,0,1-.385.041l-2.062,4.053a.618.618,0,0,1-.833.272.632.632,0,0,1-.183-.14.621.621,0,0,1-.089-.693l10.874-21.385a.62.62,0,0,1-.141-.31l-1.967-14.02A.62.62,0,0,1,357.678,322.536Z" transform="translate(-340.231 -282.47)" fill="#57ca79" style="mix-blend-mode: screen;isolation: isolate"/>
        </g>
        <path id="Path_20537" data-name="Path 20537" d="M355.314,306.421a19.074,19.074,0,0,1,5.061-5.779.5.5,0,0,0,.209-.28c2.859-2.29,10.513-8.9,6.657-11.205-3.819-2.28-6.584,7.1-7.483,10.674a19.76,19.76,0,0,0-5.254,5.947c.939-3.837,2.754-13.027-1.553-12.553-4.831.531-.26,11.4.814,13.8a37.867,37.867,0,0,0-2.569,5.645c-.176.483-.348.992-.518,1.519,0-4.233-.479-12.6-4.358-11.237-4.479,1.574,2.011,10.723,3.8,13.107a60.369,60.369,0,0,0-1.825,9.989c-.917-3.9-3.442-12.752-7.038-10.4-4.027,2.629,4.73,10.123,6.9,11.893a88.117,88.117,0,0,0-.251,9.319c-1.42-3.6-5.317-12.368-8.59-9.454-3.612,3.217,6.3,9.381,8.631,10.76.1,2.614.292,5.4.617,8.374-2.489-2.839-9.268-9.981-11.381-6.083-2.237,4.123,8.422,6.537,11.5,7.141.353,3.019.829,6.217,1.456,9.615-1.91-2.246-9.6-10.854-11.875-6.656-2.374,4.378,9.8,6.831,11.986,7.233q.614,3.262,1.409,6.757a.508.508,0,0,0,.609.381.421.421,0,0,0,.082-.027.507.507,0,0,0,.3-.582q-.8-3.5-1.407-6.749c2.488-.248,14.671-1.693,12.428-6.067-2.183-4.255-10.475,3.564-12.52,5.59-.618-3.341-1.088-6.486-1.44-9.455,2.364-.233,14.744-1.667,12.485-6.072-2.19-4.269-10.531,3.616-12.539,5.61-.376-3.279-.6-6.334-.7-9.176,2.643-.134,14.649-1,12.644-5.436-1.935-4.286-10.346,2.789-12.663,4.854a87.935,87.935,0,0,1,.229-9.8c2.656.132,14.667.479,13.12-4.137-1.489-4.446-10.522,1.7-13.066,3.541a60.243,60.243,0,0,1,1.885-10.715c2.831.138,14.56.443,13.038-4.123-1.438-4.309-9.963,1.308-12.813,3.336.252-.849.513-1.646.779-2.386a36.36,36.36,0,0,1,2.617-5.73c2.621.093,14.694.278,13.077-4.325C366.345,298.922,358.364,304.208,355.314,306.421Z" transform="translate(-322.151 -283.284)" fill="#039"/>
        <g id="Group_4157" data-name="Group 4157" transform="translate(9.92 65.653)">
          <path id="Path_20538" data-name="Path 20538" d="M339.891,379.122H362.46a2.8,2.8,0,0,0,2.789-2.563l2.878-29.572h-33.9l2.878,29.572A2.8,2.8,0,0,0,339.891,379.122Z" transform="translate(-332.159 -346.987)" fill="#57b2f6"/>
          <rect id="Rectangle_1093" data-name="Rectangle 1093" width="38.032" height="5.749" rx="1.177" transform="translate(38.032 5.749) rotate(180)" fill="#57b2f6"/>
        </g>
      </g>
    </g>
  </g>
</svg>
