<svg xmlns="http://www.w3.org/2000/svg" width="17.417" height="19" viewBox="0 0 17.417 19">
  <g id="copy" opacity="0.5">
    <path id="Path_46366" data-name="Path 46366" d="M6.927,118.147a3.369,3.369,0,0,1-3.365-3.365v-8.114H2.177A2.179,2.179,0,0,0,0,108.845v10.688a2.179,2.179,0,0,0,2.177,2.177h9.9a2.179,2.179,0,0,0,2.177-2.177v-1.385Zm0,0" transform="translate(0 -102.71)" fill="#707070"/>
    <path id="Path_46367" data-name="Path 46367" d="M140.667,2.177A2.177,2.177,0,0,0,138.49,0h-8.312A2.177,2.177,0,0,0,128,2.177v9.9a2.177,2.177,0,0,0,2.177,2.177h8.313a2.177,2.177,0,0,0,2.177-2.177Zm0,0" transform="translate(-123.25)" fill="#707070"/>
  </g>
</svg>
