<svg xmlns="http://www.w3.org/2000/svg" width="81" height="81" viewBox="0 0 81 81">
  <g id="Group_5414" data-name="Group 5414" transform="translate(-391 -575)">
    <circle id="Ellipse_242" data-name="Ellipse 242" cx="40.5" cy="40.5" r="40.5" transform="translate(391 575)" fill="#57b2f6" opacity="0.1"/>
    <path id="Path_46368" data-name="Path 46368" d="M5.819,12.163V15.8A1.094,1.094,0,0,1,4.726,16.89H1.093A1.094,1.094,0,0,1,0,15.8V12.163A1.093,1.093,0,0,1,1.093,11.07H4.726A1.094,1.094,0,0,1,5.819,12.163ZM25.358,11.07H9.116a1.094,1.094,0,0,0-1.093,1.093V15.8A1.1,1.1,0,0,0,9.116,16.89H25.359A1.094,1.094,0,0,0,26.452,15.8V12.163A1.1,1.1,0,0,0,25.358,11.07ZM4.726,2.779H1.093A1.093,1.093,0,0,0,0,3.872V7.506A1.093,1.093,0,0,0,1.093,8.6H4.726A1.093,1.093,0,0,0,5.819,7.506V3.872A1.094,1.094,0,0,0,4.726,2.779Zm20.632,0H9.116A1.094,1.094,0,0,0,8.023,3.872V7.506A1.094,1.094,0,0,0,9.116,8.6H25.359a1.093,1.093,0,0,0,1.093-1.093V3.872A1.1,1.1,0,0,0,25.358,2.779ZM4.726,19.361H1.093A1.093,1.093,0,0,0,0,20.454v3.633A1.093,1.093,0,0,0,1.093,25.18H4.726a1.093,1.093,0,0,0,1.093-1.093V20.454A1.093,1.093,0,0,0,4.726,19.361Zm20.632,0H9.116a1.094,1.094,0,0,0-1.093,1.093v3.633A1.093,1.093,0,0,0,9.116,25.18H25.359a1.093,1.093,0,0,0,1.093-1.093V20.454A1.094,1.094,0,0,0,25.358,19.361Z" transform="translate(418.854 601.964)" fill="#57b2f6"/>
  </g>
</svg>
