<svg xmlns="http://www.w3.org/2000/svg" width="81" height="81" viewBox="0 0 81 81">
  <g id="Group_5416" data-name="Group 5416" transform="translate(-431 -573)">
    <circle id="Ellipse_242" data-name="Ellipse 242" cx="40.5" cy="40.5" r="40.5" transform="translate(431 573)" fill="#57b2f6" opacity="0.1"/>
    <path id="exchanging" d="M14.725,0A14.725,14.725,0,1,0,29.45,14.725,14.725,14.725,0,0,0,14.725,0Zm3.988,19.94h-9L11.6,21.833a1.227,1.227,0,1,1-1.735,1.735L5.881,19.581a1.227,1.227,0,0,1,0-1.735l3.991-3.991a1.227,1.227,0,1,1,1.735,1.735l-1.894,1.9h9a1.227,1.227,0,0,1,0,2.454Zm4.859-8.333L19.584,15.6a1.227,1.227,0,1,1-1.735-1.735l1.894-1.9h-9a1.227,1.227,0,1,1,0-2.454h9L17.842,7.617a1.227,1.227,0,1,1,1.735-1.735l3.991,3.991a1.227,1.227,0,0,1,0,1.735Z" transform="translate(457.004 599.005)" fill="#57b2f6"/>
  </g>
</svg>
