<svg xmlns="http://www.w3.org/2000/svg" xmlns:xlink="http://www.w3.org/1999/xlink" width="125.668" height="125.668" viewBox="0 0 125.668 125.668">
  <defs>
    <linearGradient id="linear-gradient" x1="0.152" y1="0.5" x2="-0.312" y2="1.117" gradientUnits="objectBoundingBox">
      <stop offset="0" stop-color="#f4f4f6"/>
      <stop offset="1" stop-color="#204ca1"/>
    </linearGradient>
    <linearGradient id="linear-gradient-2" x1="0.015" y1="0.5" x2="1.053" y2="0.5" gradientUnits="objectBoundingBox">
      <stop offset="0" stop-color="#312783"/>
      <stop offset="1" stop-color="#009fe3"/>
    </linearGradient>
    <linearGradient id="linear-gradient-3" x1="-1.769" y1="0.5" x2="2.844" y2="0.5" xlink:href="#linear-gradient-2"/>
    <linearGradient id="linear-gradient-4" x1="-0.462" y1="0.5" x2="1.099" y2="0.5" xlink:href="#linear-gradient-2"/>
    <linearGradient id="linear-gradient-5" x1="0.058" y1="0.5" x2="0.992" y2="0.5" xlink:href="#linear-gradient-2"/>
    <linearGradient id="linear-gradient-6" x1="-0.19" y1="0.5" x2="1.159" y2="0.5" xlink:href="#linear-gradient-2"/>
    <linearGradient id="linear-gradient-7" x1="-0.01" y1="0.5" x2="0.995" y2="0.5" xlink:href="#linear-gradient-2"/>
    <linearGradient id="linear-gradient-8" x1="0.034" y1="0.5" x2="1" y2="0.5" xlink:href="#linear-gradient-2"/>
    <linearGradient id="linear-gradient-9" x1="0.035" y1="0.5" x2="0.937" y2="0.5" xlink:href="#linear-gradient-2"/>
    <linearGradient id="linear-gradient-10" x1="-0.029" y1="0.5" x2="1.032" y2="0.5" xlink:href="#linear-gradient-2"/>
    <linearGradient id="linear-gradient-11" x1="-0.048" y1="0.5" x2="1.006" y2="0.5" xlink:href="#linear-gradient-2"/>
    <linearGradient id="linear-gradient-12" x1="0.027" y1="0.5" x2="1.049" y2="0.5" xlink:href="#linear-gradient-2"/>
    <linearGradient id="linear-gradient-13" x1="-0.059" y1="0.5" x2="0.999" y2="0.5" xlink:href="#linear-gradient-2"/>
    <linearGradient id="linear-gradient-14" x1="-0.193" y1="0.5" x2="0.85" y2="0.5" xlink:href="#linear-gradient-2"/>
    <linearGradient id="linear-gradient-15" x1="-0.507" y1="0.5" x2="1.509" y2="0.5" xlink:href="#linear-gradient-2"/>
    <linearGradient id="linear-gradient-16" x1="-0.133" y1="0.5" x2="0.956" y2="0.5" xlink:href="#linear-gradient-2"/>
    <linearGradient id="linear-gradient-17" x1="-0.151" y1="0.5" x2="0.928" y2="0.5" xlink:href="#linear-gradient-2"/>
    <linearGradient id="linear-gradient-18" x1="-0.101" y1="0.5" x2="1.067" y2="0.5" xlink:href="#linear-gradient-2"/>
  </defs>
  <g id="Group_5294" data-name="Group 5294" transform="translate(-1371 -3238)">
    <rect id="Rectangle_1157" data-name="Rectangle 1157" width="125.668" height="125.668" rx="29" transform="translate(1371 3238)" fill="url(#linear-gradient)"/>
    <g id="Group_5293" data-name="Group 5293" transform="translate(1398.869 3267.655)">
      <g id="Group_2611" data-name="Group 2611" transform="translate(0 0)">
        <path id="Path_3640" data-name="Path 3640" d="M388.16,271.431c.7,1.574,7.247.76,6.9-1.236C394.706,268.116,387.3,269.5,388.16,271.431Z" transform="translate(-355.864 -269.161)" fill-rule="evenodd" fill="url(#linear-gradient-2)"/>
        <path id="Path_3641" data-name="Path 3641" d="M284.132,270.349c-1.136-.034-9.444,3.584-9.276,4.251.706.541,9.215-3.936,9.317-4.144C284.193,270.393,284.171,270.375,284.132,270.349Z" transform="translate(-257.191 -270.196)" fill-rule="evenodd" fill="url(#linear-gradient-3)"/>
        <path id="Path_3642" data-name="Path 3642" d="M348.213,272.478c-.385-.148-3.611.715-3.485,1.359C344.933,274.442,349.393,272.952,348.213,272.478Z" transform="translate(-318.076 -272.037)" fill-rule="evenodd" fill="url(#linear-gradient-4)"/>
        <path id="Path_3643" data-name="Path 3643" d="M464.895,281.043c-1.923,2.472,2.608,4.771,4.374,5.033,2.565.408,2.438.319,4.984-.288,5.331-1.1,8.095,5.9,12.6,7.67.355.14.87.158,1.079-.124.317-.426-.079-1.336-.173-1.705-.45-1.77-5.5-7.329-7.447-7.035-3.3.439-4.993-1.269-6.393-2.241C471.652,280.781,467.074,278.241,464.895,281.043Z" transform="translate(-422.384 -278.42)" fill-rule="evenodd" fill="url(#linear-gradient-5)"/>
        <path id="Path_3644" data-name="Path 3644" d="M191.176,311.989c-8.01,2.652-8.754,5.7-14.722,10.471A4.252,4.252,0,0,0,175.4,323.5c.038.213.5-.319.684-.445,3.723-2.724,4.637,2.943,8.172,3.567,3.935.494,7.639-1.968,10.3-4.63,1.684-1.686,3.584-4.781,2.949-7.258C196.784,311.928,193.705,311.214,191.176,311.989Z" transform="translate(-170.529 -306.225)" fill-rule="evenodd" fill="url(#linear-gradient-6)"/>
        <path id="Path_3645" data-name="Path 3645" d="M404.087,352.948c-3.131.026-6.049,1.645-6.063,4.547.119,2.854,1.734,4.327,4.809,4.856,2.65.417,6.645-1.832,6.475-5.229C409.109,354.494,406.428,352.923,404.087,352.948Z" transform="translate(-364.52 -342.171)" fill-rule="evenodd" fill="url(#linear-gradient-7)"/>
        <path id="Path_3646" data-name="Path 3646" d="M532.387,385.929c-1.757,2.317-.874,4.884.807,6.978a5.61,5.61,0,0,0,6.541,1.829c6.353-2.428,7.133,4.429,9.894,7.5,2.366,2.361,4.168.7,4.168-2.158-.028-3.657-1.683-9.283-6.376-7.67-1.937.593-4.6-1.88-5.643-3.238a23.766,23.766,0,0,0-2.892-3.04C537.294,384.631,533.885,383.954,532.387,385.929Z" transform="translate(-480.765 -369.845)" fill-rule="evenodd" fill="url(#linear-gradient-8)"/>
        <path id="Path_3647" data-name="Path 3647" d="M165.183,440.12c-4.34-.26-14.207,8.77-21.148,4.5-1.129-.694-1.846-2.777-2.816-2.607-4.012.7-5.018,16.194-1.7,15.447,2.619-.589,1.991-6.414,7.186-8.455,9.622-3.779,11.412,7.3,18.278,6.428C173.807,453.58,174.165,440.729,165.183,440.12Z" transform="translate(-137.527 -418.127)" fill-rule="evenodd" fill="url(#linear-gradient-9)"/>
        <path id="Path_3648" data-name="Path 3648" d="M457.216,489.737c-3.064,1.274-3.677,5.873-1.75,8.523a4.367,4.367,0,0,0,4.656,1.913c2.789-.706,4.772-2.909,6.4-.326,1.362,2.114,2.73,5.811,5.926,3.256,2.309-1.846,2.033-6.664-.985-7.408-2.116-.521-2.755,1.69-5.511-.155a5.359,5.359,0,0,1-1.636-2.67C463.117,489.816,460.384,488.421,457.216,489.737Z" transform="translate(-413.614 -460.935)" fill-rule="evenodd" fill="url(#linear-gradient-10)"/>
        <path id="Path_3649" data-name="Path 3649" d="M158.544,584.969c-1.451,6.906-3.884.4-4.572,1.318-.922,1.23,3.5,11.908,6.072,12.365.25.044.339-.244.3-.494-.212-1.536-2.415-5.074-1.145-6.2,1.425-1.267,4.05,3.2,6.137,2.537a1.594,1.594,0,0,0,.437-.272c2.279-1.8.309-11.69-3.823-13.1C159.463,580.269,158.771,583.12,158.544,584.969Z" transform="translate(-151.749 -540.863)" fill-rule="evenodd" fill="url(#linear-gradient-11)"/>
        <path id="Path_3650" data-name="Path 3650" d="M279.848,591.375c1.409,3.612,4.495,6.074,7.381,2.389,2.276-2.905,4.012-.747,5.676,1.293,1.509,1.85,3.748.459,4.836-1.071a5.005,5.005,0,0,0,.544-4.762c-2.131-4.891-5.928.4-8.312-.4-1.771-.594-2.371-2.273-3.427-3.641C283.1,580.891,277.6,585.608,279.848,591.375Z" transform="translate(-261.086 -543.088)" fill-rule="evenodd" fill="url(#linear-gradient-12)"/>
        <path id="Path_3651" data-name="Path 3651" d="M639.309,595.515c-.151.787-.112,2.164,1.013,2.4,1.249.258,2.17-2.468,1.862-3.477C641.518,592.258,639.668,593.751,639.309,595.515Z" transform="translate(-574.716 -551.656)" fill-rule="evenodd" fill="url(#linear-gradient-13)"/>
        <path id="Path_3652" data-name="Path 3652" d="M447.5,645.039c-.335,1.1-.191,2.76,1.046,3.213,2.423.886,5.584-4.111,2.471-5.338A2.821,2.821,0,0,0,447.5,645.039Z" transform="translate(-407.494 -594.724)" fill-rule="evenodd" fill="url(#linear-gradient-14)"/>
        <path id="Path_3653" data-name="Path 3653" d="M203.47,671c.031.025.056.035.074.074h-.008c-.041-.018-.068-.027-.082-.074Z" transform="translate(-194.975 -619.313)" fill-rule="evenodd" fill="url(#linear-gradient-15)"/>
        <path id="Path_3654" data-name="Path 3654" d="M497.816,672.428a2.106,2.106,0,0,0-.091,1.211c.289,1.1,1.6.873,2.356.429a3.057,3.057,0,0,0,1.376-1.631C502.256,670.184,499.023,669.506,497.816,672.428Z" transform="translate(-451.354 -618.866)" fill-rule="evenodd" fill="url(#linear-gradient-16)"/>
        <path id="Path_3655" data-name="Path 3655" d="M535.48,694.882c-.116.327-.115.743.14.906.569.364,1.411-.417,1.565-.824C537.7,693.6,535.829,693.9,535.48,694.882Z" transform="translate(-484.232 -639.393)" fill-rule="evenodd" fill="url(#linear-gradient-17)"/>
        <path id="Path_3656" data-name="Path 3656" d="M192.127,717.306c.011.028.008.012.008.049l-.066.033-.016-.008C192.065,717.327,192.084,717.325,192.127,717.306Z" transform="translate(-185.04 -659.667)" fill-rule="evenodd" fill="url(#linear-gradient-18)"/>
      </g>
    </g>
  </g>
</svg>
