<svg id="Layer_2" data-name="Layer 2" xmlns="http://www.w3.org/2000/svg" width="19.137" height="19.137" viewBox="0 0 19.137 19.137">
  <g id="_01.Add" data-name="01.Add">
    <path id="Path_46371" data-name="Path 46371" d="M14.73,0H4.406A4.419,4.419,0,0,0,0,4.406V14.73a4.419,4.419,0,0,0,4.406,4.406H14.73a4.419,4.419,0,0,0,4.406-4.406V4.406A4.419,4.419,0,0,0,14.73,0ZM13.5,10.393h-2.9a.169.169,0,0,0-.17.17v2.908a.855.855,0,0,1-1.71,0V10.563a.169.169,0,0,0-.17-.17h-2.9a.855.855,0,1,1,0-1.71h2.9a.169.169,0,0,0,.17-.17v-2.9a.855.855,0,1,1,1.71,0v2.9a.169.169,0,0,0,.17.174h2.9a.855.855,0,1,1,0,1.71Z" fill="#57ca79"/>
  </g>
</svg>
