<svg id="user" xmlns="http://www.w3.org/2000/svg" width="11.094" height="13.297" viewBox="0 0 11.094 13.297">
  <path id="Path_3593" data-name="Path 3593" d="M90.234,6.405A3.1,3.1,0,0,0,92.5,5.467,3.1,3.1,0,0,0,93.437,3.2,3.1,3.1,0,0,0,92.5.938a3.2,3.2,0,0,0-4.529,0A3.1,3.1,0,0,0,87.031,3.2a3.1,3.1,0,0,0,.938,2.264A3.1,3.1,0,0,0,90.234,6.405Zm0,0" transform="translate(-84.771 0)"/>
  <path id="Path_3594" data-name="Path 3594" d="M11.067,251.118a7.911,7.911,0,0,0-.108-.84,6.62,6.62,0,0,0-.207-.845,4.174,4.174,0,0,0-.347-.788,2.972,2.972,0,0,0-.524-.682,2.308,2.308,0,0,0-.752-.473,2.6,2.6,0,0,0-.96-.174.975.975,0,0,0-.521.221c-.156.1-.339.219-.542.35a3.107,3.107,0,0,1-.7.309,2.724,2.724,0,0,1-1.716,0,3.1,3.1,0,0,1-.7-.309c-.2-.129-.384-.247-.543-.35a.973.973,0,0,0-.52-.221,2.6,2.6,0,0,0-.96.174,2.308,2.308,0,0,0-.752.473,2.974,2.974,0,0,0-.523.682,4.182,4.182,0,0,0-.347.788,6.635,6.635,0,0,0-.207.845,7.882,7.882,0,0,0-.108.84c-.018.254-.027.518-.027.785a2.208,2.208,0,0,0,.656,1.67,2.36,2.36,0,0,0,1.69.616h6.4a2.36,2.36,0,0,0,1.69-.616,2.207,2.207,0,0,0,.656-1.67C11.093,251.636,11.084,251.371,11.067,251.118Zm0,0" transform="translate(0 -240.894)"/>
</svg>
