<svg id="statistics" xmlns="http://www.w3.org/2000/svg" width="13.067" height="13.067" viewBox="0 0 13.067 13.067">
  <path id="Path_46346" data-name="Path 46346" d="M32.148,6.125a1.143,1.143,0,0,0,.795-.323l1.133.567a1.125,1.125,0,0,0-.014.139,1.149,1.149,0,1,0,2.3,0,1.135,1.135,0,0,0-.115-.492l1.537-1.537a1.135,1.135,0,0,0,.492.115,1.15,1.15,0,0,0,1.149-1.149,1.131,1.131,0,0,0-.057-.34l1.336-1a1.148,1.148,0,1,0-.513-.955,1.131,1.131,0,0,0,.057.34l-1.336,1A1.144,1.144,0,0,0,37.24,3.938L35.7,5.475a1.129,1.129,0,0,0-1.287.208l-1.133-.567a1.125,1.125,0,0,0,.014-.139,1.149,1.149,0,1,0-1.149,1.149Zm0,0" transform="translate(-30.209)" fill="#2c3247"/>
  <path id="Path_46347" data-name="Path 46347" d="M12.685,158.473h-.408v-8.091a.383.383,0,0,0-.383-.383H10.362a.383.383,0,0,0-.383.383v8.091H9.214V152.68a.383.383,0,0,0-.383-.383H7.3a.383.383,0,0,0-.383.383v5.794H6.151v-2.731a.383.383,0,0,0-.383-.383H4.237a.383.383,0,0,0-.383.383v2.731H3.088v-4.262a.383.383,0,0,0-.383-.383H1.174a.383.383,0,0,0-.383.383v4.262H.383a.383.383,0,0,0,0,.766h12.3a.383.383,0,0,0,0-.766Zm0,0" transform="translate(0 -146.172)" fill="#2c3247"/>
</svg>
