<svg xmlns="http://www.w3.org/2000/svg" width="15.281" height="15.28" viewBox="0 0 15.281 15.28">
  <g id="money" transform="translate(-0.001 -0.006)">
    <g id="Group_5306" data-name="Group 5306" transform="translate(0.001 7.101)">
      <g id="Group_5305" data-name="Group 5305" transform="translate(0)">
        <path id="Path_46350" data-name="Path 46350" d="M.209,238.315a.318.318,0,0,0-.189.407l.2.55,1.522-1.522Z" transform="translate(-0.001 -237.75)" fill="#2c3247"/>
      </g>
    </g>
    <g id="Group_5308" data-name="Group 5308" transform="translate(1.65 12.556)">
      <g id="Group_5307" data-name="Group 5307">
        <path id="Path_46351" data-name="Path 46351" d="M55.257,420.513l.917,2.521a.315.315,0,0,0,.165.18.32.32,0,0,0,.134.03.312.312,0,0,0,.11-.02l1.012-.373Z" transform="translate(-55.257 -420.513)" fill="#2c3247"/>
      </g>
    </g>
    <g id="Group_5310" data-name="Group 5310" transform="translate(8.5 7.518)">
      <g id="Group_5309" data-name="Group 5309">
        <path id="Path_46352" data-name="Path 46352" d="M291.545,254.609l-1.049-2.885-2.518,2.518,1.248-.46a.318.318,0,1,1,.22.6l-1.585.584a.318.318,0,0,1-.409-.188s0,0,0-.006l-2.668,2.668,6.573-2.422A.317.317,0,0,0,291.545,254.609Z" transform="translate(-284.783 -251.724)" fill="#2c3247"/>
      </g>
    </g>
    <g id="Group_5312" data-name="Group 5312" transform="translate(0.001 0.006)">
      <g id="Group_5311" data-name="Group 5311" transform="translate(0 0)">
        <path id="Path_46353" data-name="Path 46353" d="M15.206,5.193,10.112.1a.319.319,0,0,0-.45,0L.112,9.649a.319.319,0,0,0,0,.45l5.093,5.093a.315.315,0,0,0,.225.094.32.32,0,0,0,.225-.093l9.55-9.55A.319.319,0,0,0,15.206,5.193ZM3.746,8.827,2.472,10.1a.319.319,0,0,1-.451-.45L3.295,8.376a.319.319,0,0,1,.451.45Zm5.5.4a1.2,1.2,0,0,1-.872.334A2.63,2.63,0,0,1,6.6,8.719a2.917,2.917,0,0,1-.8-1.355,1.33,1.33,0,0,1,.283-1.288,1.326,1.326,0,0,1,1.288-.283,2.911,2.911,0,0,1,1.355.8C9.616,7.472,9.841,8.633,9.243,9.231ZM13.3,5.643,12.022,6.917a.319.319,0,1,1-.451-.45l1.273-1.273a.319.319,0,0,1,.451.45Z" transform="translate(-0.019 -0.006)" fill="#2c3247"/>
      </g>
    </g>
  </g>
</svg>
