<svg xmlns="http://www.w3.org/2000/svg" width="13.007" height="15.815" viewBox="0 0 13.007 15.815">
  <g id="shield" transform="translate(-45.451 0)">
    <g id="Group_5313" data-name="Group 5313" transform="translate(45.451 0)">
      <path id="Path_46354" data-name="Path 46354" d="M58.2,3.63,52.224.075a.527.527,0,0,0-.539,0L45.709,3.63a.527.527,0,0,0-.258.453v2.03a10.259,10.259,0,0,0,6.313,9.667.527.527,0,0,0,.381,0,10.257,10.257,0,0,0,6.313-9.667V4.083A.527.527,0,0,0,58.2,3.63ZM54.559,6.723l-3.3,3.3a.527.527,0,0,1-.746,0l-1.16-1.16a.527.527,0,0,1,.746-.746l.787.787,2.931-2.931a.527.527,0,0,1,.746.746Z" transform="translate(-45.451 0)" fill="#2c3247"/>
    </g>
  </g>
</svg>
