<svg xmlns="http://www.w3.org/2000/svg" width="13.292" height="11.256" viewBox="0 0 13.292 11.256">
  <path id="Path_46341" data-name="Path 46341" d="M2.924,7.494V9.32a.55.55,0,0,1-.549.549H.549A.55.55,0,0,1,0,9.32V7.494a.549.549,0,0,1,.549-.549H2.375A.55.55,0,0,1,2.924,7.494Zm9.818-.549H4.581a.55.55,0,0,0-.549.549V9.32a.55.55,0,0,0,.549.549h8.162a.55.55,0,0,0,.549-.549V7.494A.55.55,0,0,0,12.742,6.945ZM2.375,2.779H.549A.549.549,0,0,0,0,3.328V5.154A.549.549,0,0,0,.549,5.7H2.375a.549.549,0,0,0,.549-.549V3.328A.55.55,0,0,0,2.375,2.779Zm10.368,0H4.581a.55.55,0,0,0-.549.549V5.154a.55.55,0,0,0,.549.549h8.162a.549.549,0,0,0,.549-.549V3.328A.55.55,0,0,0,12.742,2.779ZM2.375,11.111H.549A.549.549,0,0,0,0,11.661v1.825a.549.549,0,0,0,.549.549H2.375a.549.549,0,0,0,.549-.549V11.661A.549.549,0,0,0,2.375,11.111Zm10.368,0H4.581a.55.55,0,0,0-.549.549v1.825a.549.549,0,0,0,.549.549h8.162a.549.549,0,0,0,.549-.549V11.661A.55.55,0,0,0,12.742,11.111Z" transform="translate(0 -2.779)" fill="#2c3247"/>
</svg>
