<svg xmlns="http://www.w3.org/2000/svg" width="13.859" height="13.859" viewBox="0 0 13.859 13.859">
  <path id="exchanging" d="M6.929,0a6.929,6.929,0,1,0,6.929,6.929A6.929,6.929,0,0,0,6.929,0ZM8.806,9.384H4.569l.891.891a.577.577,0,1,1-.817.817L2.768,9.214a.577.577,0,0,1,0-.817L4.646,6.52a.577.577,0,1,1,.817.817l-.891.892H8.806a.577.577,0,0,1,0,1.155Zm2.286-3.921L9.216,7.339A.577.577,0,1,1,8.4,6.523L9.29,5.63H5.054a.577.577,0,0,1,0-1.155H9.287L8.4,3.584a.577.577,0,1,1,.817-.817l1.878,1.878a.577.577,0,0,1,0,.817Z" fill="#2c3247"/>
</svg>
