<svg id="gear" xmlns="http://www.w3.org/2000/svg" width="13.859" height="13.859" viewBox="0 0 13.859 13.859">
  <g id="Group_5314" data-name="Group 5314">
    <path id="Path_46356" data-name="Path 46356" d="M13.551,5.724l-1.59-.391a5.247,5.247,0,0,0-.367-.873l.74-1.234a.406.406,0,0,0-.061-.5L11.126,1.582a.4.4,0,0,0-.5-.061l-1.236.74A5.231,5.231,0,0,0,8.526,1.9L8.135.308A.406.406,0,0,0,7.741,0H6.117a.406.406,0,0,0-.394.308S5.453,1.417,5.333,1.9a5.213,5.213,0,0,0-.921.393L3.131,1.521a.407.407,0,0,0-.5.061L1.486,2.73a.406.406,0,0,0-.061.5l.792,1.323a5.232,5.232,0,0,0-.32.782l-1.59.392A.406.406,0,0,0,0,6.117V7.741a.406.406,0,0,0,.308.394l1.59.391a5.237,5.237,0,0,0,.374.888L1.562,10.6a.406.406,0,0,0,.061.5L2.772,12.24a.408.408,0,0,0,.5.061l1.184-.71a5.231,5.231,0,0,0,.881.371l.391,1.589a.405.405,0,0,0,.394.308H7.741a.406.406,0,0,0,.394-.308l.391-1.589a5.157,5.157,0,0,0,.9-.383l1.2.722a.406.406,0,0,0,.5-.061l1.148-1.148a.406.406,0,0,0,.061-.5l-.73-1.216a5.2,5.2,0,0,0,.356-.853l1.59-.391a.406.406,0,0,0,.308-.394V6.117A.406.406,0,0,0,13.551,5.724ZM6.929,9.772A2.842,2.842,0,1,1,9.772,6.929,2.846,2.846,0,0,1,6.929,9.772Z" fill="#2c3247"/>
  </g>
</svg>
