<svg id="reference" xmlns="http://www.w3.org/2000/svg" width="13.859" height="13.859" viewBox="0 0 13.859 13.859">
  <circle id="Ellipse_239" data-name="Ellipse 239" cx="1.5" cy="1.5" r="1.5" transform="translate(1)" fill="#2c3247"/>
  <path id="Path_46357" data-name="Path 46357" d="M2.436,120A2.439,2.439,0,0,0,0,122.436v2.436H.865l.812,5.738H3.195l.812-5.738h.865v-2.436A2.439,2.439,0,0,0,2.436,120Z" transform="translate(0 -116.752)" fill="#2c3247"/>
  <circle id="Ellipse_240" data-name="Ellipse 240" cx="1.5" cy="1.5" r="1.5" transform="translate(10)" fill="#2c3247"/>
  <path id="Path_46358" data-name="Path 46358" d="M334.436,120A2.439,2.439,0,0,0,332,122.436v2.436h.865l.812,5.738h1.517l.812-5.738h.865v-2.436A2.439,2.439,0,0,0,334.436,120Z" transform="translate(-323.013 -116.752)" fill="#2c3247"/>
  <path id="Path_46359" data-name="Path 46359" d="M211.728,87.467l.322.322H211V88.6h1.05l-.322.322.574.574,1.3-1.3-1.3-1.3Z" transform="translate(-205.289 -84.541)" fill="#2c3247"/>
  <path id="Path_46360" data-name="Path 46360" d="M211.728,207.467l.322.322H211v.812h1.05l-.322.322.574.574,1.3-1.3-1.3-1.3Z" transform="translate(-205.289 -201.293)" fill="#2c3247"/>
  <path id="Path_46361" data-name="Path 46361" d="M211.728,327.467l.322.322H211v.812h1.05l-.322.322.574.574,1.3-1.3-1.3-1.3Z" transform="translate(-205.289 -318.045)" fill="#2c3247"/>
</svg>
