<svg xmlns="http://www.w3.org/2000/svg" width="13.859" height="12.473" viewBox="0 0 13.859 12.473">
  <g id="api" transform="translate(0 -0.332)">
    <path id="Path_46362" data-name="Path 46362" d="M13.859,2.411V2.064A1.734,1.734,0,0,0,12.126.332H1.732A1.734,1.734,0,0,0,0,2.064v.346Zm0,0" fill="#2c3247"/>
    <path id="Path_46363" data-name="Path 46363" d="M224.693,171H224v1.386h.693a.693.693,0,1,0,0-1.386Zm0,0" transform="translate(-216.724 -165.124)" fill="#2c3247"/>
    <path id="Path_46364" data-name="Path 46364" d="M0,85.668v7.969a1.734,1.734,0,0,0,1.732,1.732H12.126a1.734,1.734,0,0,0,1.732-1.732V85.668Zm5.89,6.583a.346.346,0,1,1-.693,0V90.519H3.811v1.732a.346.346,0,1,1-.693,0V89.133a1.386,1.386,0,0,1,2.772,0Zm2.079-1.732H7.276v1.732a.346.346,0,1,1-.693,0V88.093a.346.346,0,0,1,.346-.346H7.969a1.386,1.386,0,1,1,0,2.772Zm2.772,1.732a.347.347,0,0,1-.693,0V88.093a.347.347,0,0,1,.693,0Zm0,0" transform="translate(0 -82.564)" fill="#2c3247"/>
    <path id="Path_46365" data-name="Path 46365" d="M118.025,171a.694.694,0,0,0-.693.693v.693h1.386v-.693A.694.694,0,0,0,118.025,171Zm0,0" transform="translate(-113.521 -165.124)" fill="#2c3247"/>
  </g>
</svg>
