<svg xmlns="http://www.w3.org/2000/svg" width="13.859" height="13.859" viewBox="0 0 13.859 13.859">
  <path id="faq" d="M11.709,1H4.15A3.154,3.154,0,0,0,1,4.15v5.04a3.155,3.155,0,0,0,2.52,3.087v1.953a.63.63,0,0,0,.98.524l3.619-2.414h3.591a3.154,3.154,0,0,0,3.15-3.15V4.15A3.154,3.154,0,0,0,11.709,1Zm-3.78,9.449a.63.63,0,1,1,.63-.63A.63.63,0,0,1,7.929,10.449ZM9.046,6.3a1.08,1.08,0,0,0-.487.83v.8a.63.63,0,0,1-1.26,0v-.8a2.3,2.3,0,0,1,1-1.845.63.63,0,1,0-1-.509.63.63,0,0,1-1.26,0A1.89,1.89,0,1,1,9.046,6.3Z" transform="translate(-1 -1)" fill="#2c3247"/>
</svg>
