<svg xmlns="http://www.w3.org/2000/svg" width="13" height="10.287" viewBox="0 0 13 10.287">
  <g id="Group_2612" data-name="Group 2612" transform="translate(94 90)">
    <g id="Group_2611" data-name="Group 2611" transform="translate(-94 -90)">
      <path id="Path_3640" data-name="Path 3640" d="M388.1,269.565c.125.28,1.29.135,1.229-.22S387.95,269.222,388.1,269.565Z" transform="translate(-382.354 -269.161)" fill="#2c3247" fill-rule="evenodd"/>
      <path id="Path_3641" data-name="Path 3641" d="M276.505,270.348a5.253,5.253,0,0,0-1.651.757,6.667,6.667,0,0,0,1.658-.738C276.516,270.356,276.512,270.353,276.505,270.348Z" transform="translate(-271.71 -270.321)" fill="#2c3247" fill-rule="evenodd"/>
      <path id="Path_3642" data-name="Path 3642" d="M345.346,272.464c-.069-.026-.643.127-.62.242S345.556,272.549,345.346,272.464Z" transform="translate(-339.982 -272.386)" fill="#2c3247" fill-rule="evenodd"/>
      <path id="Path_3643" data-name="Path 3643" d="M464.512,280.011c-.342.44.464.849.779.9a1.491,1.491,0,0,0,.887-.051c.949-.2,1.441,1.05,2.242,1.365.063.025.155.028.192-.022.056-.076-.014-.238-.031-.3-.08-.315-.978-1.3-1.326-1.252a1.428,1.428,0,0,1-1.138-.4C465.714,279.964,464.9,279.512,464.512,280.011Z" transform="translate(-456.945 -279.544)" fill="#2c3247" fill-rule="evenodd"/>
      <path id="Path_3644" data-name="Path 3644" d="M178.208,311.748c-1.426.472-1.558,1.015-2.62,1.864a.757.757,0,0,0-.188.185c.007.038.088-.057.122-.079.663-.485.825.524,1.455.635a2.337,2.337,0,0,0,1.833-.824,1.57,1.57,0,0,0,.525-1.292A.838.838,0,0,0,178.208,311.748Z" transform="translate(-174.533 -310.722)" fill="#2c3247" fill-rule="evenodd"/>
      <path id="Path_3645" data-name="Path 3645" d="M399.1,352.948c-.557,0-1.077.293-1.079.809.021.508.309.77.856.864a1.025,1.025,0,0,0,1.153-.931A.891.891,0,0,0,399.1,352.948Z" transform="translate(-392.06 -351.03)" fill="#2c3247" fill-rule="evenodd"/>
      <path id="Path_3646" data-name="Path 3646" d="M531.6,384.924a.965.965,0,0,0,.144,1.242,1,1,0,0,0,1.164.326c1.131-.432,1.27.788,1.761,1.336.421.42.742.125.742-.384-.005-.651-.3-1.652-1.135-1.365-.345.106-.819-.335-1-.576a4.232,4.232,0,0,0-.515-.541C532.471,384.693,531.864,384.573,531.6,384.924Z" transform="translate(-522.409 -382.061)" fill="#2c3247" fill-rule="evenodd"/>
      <path id="Path_3647" data-name="Path 3647" d="M142.45,440.115c-.773-.046-2.529,1.561-3.764.8-.2-.124-.329-.494-.5-.464-.714.125-.893,2.883-.3,2.75.466-.1.354-1.142,1.279-1.5,1.713-.673,2.031,1.3,3.254,1.144C143.985,442.511,144.048,440.224,142.45,440.115Z" transform="translate(-137.527 -436.2)" fill="#2c3247" fill-rule="evenodd"/>
      <path id="Path_3648" data-name="Path 3648" d="M454.872,489.33a1.041,1.041,0,0,0-.312,1.517.777.777,0,0,0,.829.34c.5-.126.849-.518,1.139-.058.242.376.486,1.034,1.055.58.411-.329.362-1.186-.175-1.319-.377-.093-.49.3-.981-.027a.954.954,0,0,1-.291-.475A.905.905,0,0,0,454.872,489.33Z" transform="translate(-447.111 -484.203)" fill="#2c3247" fill-rule="evenodd"/>
      <path id="Path_3649" data-name="Path 3649" d="M154.684,581.679c-.258,1.229-.691.071-.814.235-.164.219.622,2.12,1.081,2.2.044.008.06-.043.053-.088-.038-.273-.43-.9-.2-1.1.254-.226.721.569,1.092.452a.282.282,0,0,0,.078-.048c.406-.321.055-2.081-.68-2.332C154.847,580.842,154.724,581.35,154.684,581.679Z" transform="translate(-153.474 -573.828)" fill="#2c3247" fill-rule="evenodd"/>
      <path id="Path_3650" data-name="Path 3650" d="M279.417,584.918c.251.643.8,1.081,1.314.425.405-.517.714-.133,1.01.23.269.329.667.082.861-.191a.891.891,0,0,0,.1-.848c-.379-.871-1.055.071-1.48-.072-.315-.106-.422-.4-.61-.648C280,583.051,279.016,583.891,279.417,584.918Z" transform="translate(-276.077 -576.322)" fill="#2c3247" fill-rule="evenodd"/>
      <path id="Path_3651" data-name="Path 3651" d="M639.257,593.737c-.027.14-.02.385.18.427.222.046.386-.439.331-.619C639.65,593.157,639.321,593.423,639.257,593.737Z" transform="translate(-627.759 -585.93)" fill="#2c3247" fill-rule="evenodd"/>
      <path id="Path_3652" data-name="Path 3652" d="M447.369,643.18c-.06.2-.034.491.186.572.431.158.994-.732.44-.95A.5.5,0,0,0,447.369,643.18Z" transform="translate(-440.249 -634.224)" fill="#2c3247" fill-rule="evenodd"/>
      <path id="Path_3653" data-name="Path 3653" d="M203.457,671c.006,0,.01.006.013.013h0c-.007,0-.012,0-.015-.013Z" transform="translate(-201.945 -661.796)" fill="#2c3247" fill-rule="evenodd"/>
      <path id="Path_3654" data-name="Path 3654" d="M497.7,670.829a.375.375,0,0,0-.016.216c.051.2.285.155.419.076a.544.544,0,0,0,.245-.29C498.491,670.43,497.915,670.309,497.7,670.829Z" transform="translate(-489.43 -661.295)" fill="#2c3247" fill-rule="evenodd"/>
      <path id="Path_3655" data-name="Path 3655" d="M535.418,694.189c-.021.058-.021.132.025.161.1.065.251-.074.279-.147C535.814,693.961,535.481,694.014,535.418,694.189Z" transform="translate(-526.296 -684.312)" fill="#2c3247" fill-rule="evenodd"/>
      <path id="Path_3656" data-name="Path 3656" d="M192.066,717.306c0,.005,0,0,0,.009l-.012.006h0C192.055,717.31,192.059,717.309,192.066,717.306Z" transform="translate(-190.805 -707.046)" fill="#2c3247" fill-rule="evenodd"/>
    </g>
  </g>
</svg>
