<svg id="blog" xmlns="http://www.w3.org/2000/svg" width="13" height="13" viewBox="0 0 13 13">
  <path id="Path_46446" data-name="Path 46446" d="M11.857,0H1.143A1.144,1.144,0,0,0,0,1.143V2.285H13V1.143A1.144,1.144,0,0,0,11.857,0ZM1.93,1.523a.381.381,0,1,1,.381-.381A.381.381,0,0,1,1.93,1.523Zm1.523,0a.381.381,0,1,1,.381-.381A.381.381,0,0,1,3.453,1.523Zm1.523,0a.381.381,0,1,1,.381-.381A.381.381,0,0,1,4.977,1.523Z" fill="#2c3247"/>
  <path id="Path_46447" data-name="Path 46447" d="M0,120v5.713a1.144,1.144,0,0,0,1.143,1.143H8.658v-2.92a1.143,1.143,0,0,1,.034-.277l.508-2.031a1.143,1.143,0,0,1,2.217,0l.508,2.031a1.143,1.143,0,0,1,.034.277v2.915A1.144,1.144,0,0,0,13,125.713V120Zm7.77,5.332H1.676a.381.381,0,0,1,0-.762H7.77a.381.381,0,1,1,0,.762Zm0-1.523H1.676a.381.381,0,0,1,0-.762H7.77a.381.381,0,1,1,0,.762Zm0-1.523H1.676a.381.381,0,0,1,0-.762H7.77a.381.381,0,1,1,0,.762Z" transform="translate(0 -116.953)" fill="#2c3247"/>
  <g id="Group_5410" data-name="Group 5410" transform="translate(9.42 4.57)">
    <path id="Path_46448" data-name="Path 46448" d="M371,290h1.777v3.352H371Z" transform="translate(-371 -287.206)" fill="#2c3247"/>
    <path id="Path_46449" data-name="Path 46449" d="M375.9,182.031l-.436-1.743a.381.381,0,0,0-.739,0l-.436,1.743Z" transform="translate(-374.205 -180)" fill="#2c3247"/>
    <path id="Path_46450" data-name="Path 46450" d="M371,452v.635a.889.889,0,0,0,1.777,0V452Z" transform="translate(-371 -445.093)" fill="#2c3247"/>
  </g>
</svg>
