<svg xmlns="http://www.w3.org/2000/svg" width="117.81" height="16.625" viewBox="0 0 117.81 16.625">
  <g id="_80" data-name="80" transform="translate(307.497 11.294)">
    <path id="Path_46419" data-name="Path 46419" d="M-207.987-11.236V5.292h4.583V-.622h1.532l5.59,5.914h6.6l-7.843-8.167,7.348-8.419h-6.475l-5.169,5.856h-1.743V-11.2l-4.417-.037Zm-89.233.039h3.2l6.941,16.528h-4.868l-1.2-2.793h-8.068l-1.2,2.737H-307.5L-300.39-11.2h3.17Zm0,9.519h2.164l-2.164-4.855-.015-.039-2.149,4.894Zm10.818-9.557V5.292h4.6V-.622h1.533l5.589,5.914h6.6l-7.859-8.167,7.362-8.419h-6.476l-5.168,5.856h-1.758V-11.2l-4.417-.037Zm27.165,0h5.229a3.507,3.507,0,0,1,2.75,2.851c.406,1.638.121,4.335-.977,5.318.8.423,1.338,2.023,1.413,3.68v.655a7.249,7.249,0,0,1-.09.848c-.285,1.83-1.413,3.216-2.314,3.216h-13.928c-.015-5.509-.015-11.038-.03-16.567Zm0,11.963h3.26a.828.828,0,0,0,.721-.885.809.809,0,0,0-.721-.87h-3.26l-3.786.02V.727Zm0-5.951h3.08a.817.817,0,0,0,.706-.886A.816.816,0,0,0-256.157-7l-3.08.018-3.786.02v1.734Zm30.17-5.973V5.275h4.643v-11.1l6.566,11.115h7.2V-11.2h-4.582V.343l-6.7-11.579-7.122.039Zm-10.909,0h3.2l6.94,16.528h-4.852L-235.9,2.537h-8.067l-1.2,2.737h-5.08l7.107-16.472h3.17Zm0,9.519h2.179l-2.179-4.855-.014-.039-2.148,4.894Z" fill="#ed1c24"/>
  </g>
</svg>
