<svg xmlns="http://www.w3.org/2000/svg" width="18.199" height="21.507" viewBox="0 0 18.199 21.507">
  <g id="android-character-symbol" transform="translate(0)">
    <g id="Group_1305" data-name="Group 1305" transform="translate(0 0)">
      <path id="Path_1854" data-name="Path 1854" d="M37.87,153.884a1.284,1.284,0,0,0-.944.388,1.27,1.27,0,0,0-.388.931v5.558a1.324,1.324,0,0,0,1.331,1.331,1.263,1.263,0,0,0,.937-.388,1.3,1.3,0,0,0,.381-.943V155.2a1.324,1.324,0,0,0-1.318-1.318Z" transform="translate(-36.539 -146.917)"/>
      <path id="Path_1855" data-name="Path 1855" d="M106.494,167.916a1.412,1.412,0,0,0,1.422,1.421h.956l.013,2.934a1.284,1.284,0,0,0,.388.943,1.269,1.269,0,0,0,.931.388,1.324,1.324,0,0,0,1.331-1.331v-2.934h1.784v2.934a1.331,1.331,0,1,0,2.662,0v-2.934h.97a1.356,1.356,0,0,0,1-.413,1.372,1.372,0,0,0,.414-1.008v-8.608H106.494Z" transform="translate(-103.327 -152.096)"/>
      <path id="Path_1856" data-name="Path 1856" d="M114.265,1.977l.917-1.693a.17.17,0,0,0-.064-.258A.179.179,0,0,0,114.86.1l-.931,1.706a6.488,6.488,0,0,0-5.2,0L107.8.1a.179.179,0,0,0-.258-.078.17.17,0,0,0-.065.258l.918,1.693a5.661,5.661,0,0,0-2.223,1.984,5.011,5.011,0,0,0-.827,2.785H117.3a5.01,5.01,0,0,0-.827-2.785A5.683,5.683,0,0,0,114.265,1.977Zm-5.306,2.462a.484.484,0,0,1-.355.149.464.464,0,0,1-.349-.149.516.516,0,0,1,0-.711.464.464,0,0,1,.349-.149.5.5,0,0,1,.355.86Zm5.448,0a.465.465,0,0,1-.349.149.5.5,0,0,1,0-1.008.464.464,0,0,1,.349.149.516.516,0,0,1,0,.711Z" transform="translate(-102.232 0.001)"/>
      <path id="Path_1857" data-name="Path 1857" d="M382.266,154.265a1.3,1.3,0,0,0-.944-.381,1.28,1.28,0,0,0-.93.381,1.263,1.263,0,0,0-.388.937v5.558a1.284,1.284,0,0,0,.388.943,1.268,1.268,0,0,0,.93.388,1.324,1.324,0,0,0,1.331-1.331V155.2A1.262,1.262,0,0,0,382.266,154.265Z" transform="translate(-364.455 -146.917)"/>
    </g>
  </g>
</svg>
