<svg xmlns="http://www.w3.org/2000/svg" width="14.848" height="17.737" viewBox="0 0 14.848 17.737">
  <g id="apple-logo" transform="translate(0)">
    <g id="Group_1304" data-name="Group 1304" transform="translate(0 0)">
      <path id="Path_1852" data-name="Path 1852" d="M51.856,114.949a4.059,4.059,0,0,1-.735-2.377,3.8,3.8,0,0,1,.693-2.207,6.907,6.907,0,0,1,1.215-1.258,5.5,5.5,0,0,0-1.109-1.066,3.9,3.9,0,0,0-2.27-.693,6.015,6.015,0,0,0-1.844.363,5.338,5.338,0,0,1-1.524.363,6.856,6.856,0,0,1-1.471-.32,7.091,7.091,0,0,0-1.887-.32,3.68,3.68,0,0,0-3.027,1.535,6.324,6.324,0,0,0-1.2,3.987,10.928,10.928,0,0,0,1.567,5.361q1.588,2.761,3.208,2.761a3.853,3.853,0,0,0,1.407-.362,4.108,4.108,0,0,1,1.514-.352,4.713,4.713,0,0,1,1.609.341,4.928,4.928,0,0,0,1.492.341q1.364,0,2.739-2.089a10.289,10.289,0,0,0,1.311-2.665A3.242,3.242,0,0,1,51.856,114.949Z" transform="translate(-38.692 -103.341)"/>
      <path id="Path_1853" data-name="Path 1853" d="M235.945,3.368a4.375,4.375,0,0,0,.991-1.471,4.066,4.066,0,0,0,.309-1.45c0-.028,0-.064-.005-.107s-.005-.078-.005-.107a1.021,1.021,0,0,1-.027-.117A.989.989,0,0,0,237.181,0a4.248,4.248,0,0,0-2.665,1.578,4.861,4.861,0,0,0-.831,2.739,5.956,5.956,0,0,0,1.109-.181A3.021,3.021,0,0,0,235.945,3.368Z" transform="translate(-226.405 0)"/>
    </g>
  </g>
</svg>
