<svg id="close" xmlns="http://www.w3.org/2000/svg" width="24.537" height="24.537" viewBox="0 0 24.537 24.537">
  <g id="Group_5351" data-name="Group 5351" transform="translate(0)">
    <g id="Group_5350" data-name="Group 5350">
      <path id="Path_46417" data-name="Path 46417" d="M20.944,3.593a12.268,12.268,0,0,0-17.35,17.35,12.268,12.268,0,0,0,17.35-17.35ZM19.927,19.927A10.831,10.831,0,0,1,4.61,4.61,10.831,10.831,0,1,1,19.927,19.927Z" transform="translate(0)"/>
    </g>
  </g>
  <g id="Group_5353" data-name="Group 5353" transform="translate(6.65 6.65)">
    <g id="Group_5352" data-name="Group 5352">
      <path id="Path_46418" data-name="Path 46418" d="M149.78,148.764l-4.392-4.392,4.392-4.392a.719.719,0,0,0-1.017-1.017l-4.392,4.392-4.392-4.392a.719.719,0,0,0-1.017,1.017l4.392,4.392-4.392,4.392a.719.719,0,0,0,1.017,1.017l4.392-4.392,4.392,4.392a.719.719,0,0,0,1.017-1.017Z" transform="translate(-138.753 -138.754)"/>
    </g>
  </g>
</svg>
