<svg xmlns="http://www.w3.org/2000/svg" width="111.667" height="111.667" viewBox="0 0 111.667 111.667">
  <path id="email" d="M55.833,111.667a55.833,55.833,0,1,1,55.833-55.833A55.9,55.9,0,0,1,55.833,111.667ZM84.788,75.447A1.25,1.25,0,0,0,86.036,74.2V39.146L57.629,61.7a2.887,2.887,0,0,1-3.592,0L25.63,39.146V74.2a1.25,1.25,0,0,0,1.249,1.249ZM80.434,36.219l-24.6,19.536-24.6-19.536Zm11.378,1.249V74.2a7.033,7.033,0,0,1-7.025,7.025H26.879A7.032,7.032,0,0,1,19.854,74.2V37.468a7.032,7.032,0,0,1,7.024-7.024H84.788A7.032,7.032,0,0,1,91.812,37.468Z" fill="#57b2f6" fill-rule="evenodd"/>
</svg>
