<svg xmlns="http://www.w3.org/2000/svg" width="14.447" height="9.851" viewBox="0 0 14.447 9.851">
  <g id="eye" transform="translate(0 -74.667)" opacity="0.2">
    <g id="Group_2522" data-name="Group 2522" transform="translate(0 74.667)">
      <g id="Group_2521" data-name="Group 2521">
        <path id="Path_3409" data-name="Path 3409" d="M172.637,170.667a1.97,1.97,0,1,0,1.97,1.97A1.972,1.972,0,0,0,172.637,170.667Z" transform="translate(-165.413 -167.712)"/>
        <path id="Path_3410" data-name="Path 3410" d="M7.224,74.667A7.767,7.767,0,0,0,0,79.592a7.76,7.76,0,0,0,14.447,0A7.763,7.763,0,0,0,7.224,74.667Zm0,8.209a3.284,3.284,0,1,1,3.284-3.283A3.285,3.285,0,0,1,7.224,82.876Z" transform="translate(0 -74.667)"/>
      </g>
    </g>
  </g>
</svg>
