<svg xmlns="http://www.w3.org/2000/svg" width="46.172" height="36.538" viewBox="0 0 46.172 36.538">
  <g id="Group_4031" data-name="Group 4031" transform="translate(-13 -13)">
    <g id="Group_2612" data-name="Group 2612" transform="translate(13 13)">
      <g id="Group_2611" data-name="Group 2611">
        <path id="Path_3640" data-name="Path 3640" d="M388.134,270.6c.444,1,4.581.481,4.365-.781C392.273,268.5,387.592,269.378,388.134,270.6Z" transform="translate(-367.717 -269.161)" fill="#039" fill-rule="evenodd"/>
        <path id="Path_3641" data-name="Path 3641" d="M280.719,270.348c-.718-.021-5.971,2.266-5.864,2.687.446.342,5.826-2.489,5.89-2.62C280.758,270.377,280.744,270.365,280.719,270.348Z" transform="translate(-263.687 -270.252)" fill="#039" fill-rule="evenodd"/>
        <path id="Path_3642" data-name="Path 3642" d="M346.93,272.472c-.244-.094-2.283.452-2.2.859C344.857,273.713,347.676,272.772,346.93,272.472Z" transform="translate(-327.877 -272.193)" fill="#039" fill-rule="evenodd"/>
        <path id="Path_3643" data-name="Path 3643" d="M464.723,280.581c-1.215,1.563,1.649,3.016,2.766,3.182a5.3,5.3,0,0,0,3.151-.182c3.37-.7,5.118,3.73,7.963,4.849.225.088.55.1.682-.078.2-.269-.05-.845-.109-1.078-.284-1.119-3.475-4.633-4.708-4.448-2.087.277-3.156-.8-4.042-1.417C469,280.416,466.1,278.81,464.723,280.581Z" transform="translate(-437.848 -278.923)" fill="#039" fill-rule="evenodd"/>
        <path id="Path_3644" data-name="Path 3644" d="M185.374,311.881c-5.064,1.677-5.535,3.606-9.307,6.62a2.689,2.689,0,0,0-.667.656c.024.135.314-.2.432-.281,2.354-1.722,2.931,1.861,5.167,2.255,2.487.312,4.829-1.244,6.51-2.927,1.065-1.066,2.266-3.023,1.864-4.588C188.919,311.843,186.973,311.391,185.374,311.881Z" transform="translate(-172.32 -308.238)" fill="#039" fill-rule="evenodd"/>
        <path id="Path_3645" data-name="Path 3645" d="M401.857,352.948c-1.979.016-3.825,1.04-3.833,2.875.075,1.8,1.1,2.736,3.04,3.07,1.676.264,4.2-1.158,4.094-3.306A3.166,3.166,0,0,0,401.857,352.948Z" transform="translate(-376.842 -346.135)" fill="#039" fill-rule="evenodd"/>
        <path id="Path_3646" data-name="Path 3646" d="M532.034,385.48c-1.11,1.465-.553,3.088.511,4.411a3.547,3.547,0,0,0,4.135,1.156c4.017-1.535,4.509,2.8,6.255,4.745,1.5,1.493,2.635.445,2.635-1.365-.018-2.312-1.064-5.869-4.031-4.849-1.225.375-2.908-1.188-3.568-2.047a15.021,15.021,0,0,0-1.828-1.922C535.136,384.659,532.981,384.231,532.034,385.48Z" transform="translate(-499.398 -375.311)" fill="#039" fill-rule="evenodd"/>
        <path id="Path_3647" data-name="Path 3647" d="M155.011,440.118c-2.744-.164-8.982,5.545-13.37,2.846-.714-.439-1.167-1.756-1.78-1.648-2.537.445-3.172,10.238-1.076,9.766,1.656-.373,1.258-4.055,4.543-5.345,6.083-2.389,7.215,4.613,11.556,4.064C160.463,448.628,160.69,440.5,155.011,440.118Z" transform="translate(-137.527 -426.214)" fill="#039" fill-rule="evenodd"/>
        <path id="Path_3648" data-name="Path 3648" d="M456.167,489.555c-1.937.805-2.325,3.713-1.106,5.388A2.761,2.761,0,0,0,458,496.152c1.763-.446,3.017-1.839,4.045-.206.861,1.336,1.726,3.674,3.746,2.059,1.46-1.167,1.285-4.213-.623-4.683-1.338-.33-1.742,1.069-3.484-.1a3.389,3.389,0,0,1-1.034-1.688A3.215,3.215,0,0,0,456.167,489.555Z" transform="translate(-428.602 -471.346)" fill="#039" fill-rule="evenodd"/>
        <path id="Path_3649" data-name="Path 3649" d="M156.817,583.5c-.917,4.366-2.455.253-2.891.833-.583.778,2.21,7.529,3.838,7.818.158.028.214-.154.188-.312-.134-.971-1.527-3.208-.724-3.922.9-.8,2.56,2.021,3.88,1.6a1,1,0,0,0,.276-.172c1.441-1.141.2-7.39-2.417-8.281C157.4,580.526,156.96,582.328,156.817,583.5Z" transform="translate(-152.521 -555.613)" fill="#039" fill-rule="evenodd"/>
        <path id="Path_3650" data-name="Path 3650" d="M279.655,588.486c.891,2.283,2.842,3.84,4.667,1.51,1.439-1.837,2.537-.472,3.589.818.954,1.17,2.369.29,3.057-.677a3.164,3.164,0,0,0,.344-3.01c-1.347-3.092-3.748.25-5.255-.255-1.119-.376-1.5-1.437-2.167-2.3C281.713,581.858,278.233,584.84,279.655,588.486Z" transform="translate(-267.794 -557.958)" fill="#039" fill-rule="evenodd"/>
        <path id="Path_3651" data-name="Path 3651" d="M639.286,594.719c-.1.5-.071,1.368.641,1.516.79.163,1.372-1.56,1.177-2.2C640.682,592.661,639.513,593.6,639.286,594.719Z" transform="translate(-598.45 -566.991)" fill="#039" fill-rule="evenodd"/>
        <path id="Path_3652" data-name="Path 3652" d="M447.44,644.207c-.212.7-.121,1.745.661,2.031,1.532.56,3.53-2.6,1.562-3.375A1.784,1.784,0,0,0,447.44,644.207Z" transform="translate(-422.15 -612.398)" fill="#039" fill-rule="evenodd"/>
        <path id="Path_3653" data-name="Path 3653" d="M203.464,671c.02.016.035.022.047.047h-.005c-.026-.011-.043-.017-.052-.047Z" transform="translate(-198.093 -638.322)" fill="#039" fill-rule="evenodd"/>
        <path id="Path_3654" data-name="Path 3654" d="M497.764,671.712a1.333,1.333,0,0,0-.057.766c.182.7,1.013.552,1.49.271a1.932,1.932,0,0,0,.87-1.031C500.571,670.294,498.527,669.866,497.764,671.712Z" transform="translate(-468.391 -637.851)" fill="#039" fill-rule="evenodd"/>
        <path id="Path_3655" data-name="Path 3655" d="M535.452,694.572c-.074.207-.073.47.089.573.36.23.892-.264.99-.521C536.858,693.76,535.673,693.95,535.452,694.572Z" transform="translate(-503.053 -659.492)" fill="#039" fill-rule="evenodd"/>
        <path id="Path_3656" data-name="Path 3656" d="M192.1,717.306c.007.018.005.007.005.031l-.042.021-.01-.005C192.061,717.319,192.073,717.318,192.1,717.306Z" transform="translate(-187.619 -680.866)" fill="#039" fill-rule="evenodd"/>
      </g>
    </g>
  </g>
</svg>
