<svg xmlns="http://www.w3.org/2000/svg" width="236" height="236" viewBox="0 0 236 236">
  <g id="Group_5410" data-name="Group 5410" transform="translate(-238 -423)">
    <g id="Ellipse_243" data-name="Ellipse 243" transform="translate(238 423)" fill="#57b2f6" stroke="#707070" stroke-width="1" opacity="0.1">
      <circle cx="118" cy="118" r="118" stroke="none"/>
      <circle cx="118" cy="118" r="117.5" fill="none"/>
    </g>
    <g id="question_1_" data-name="question (1)" transform="translate(286 484)">
      <g id="Group_5345" data-name="Group 5345" transform="translate(0 0)">
        <path id="Path_46388" data-name="Path 46388" d="M57.9,101.44l-1.922-1.922a13.121,13.121,0,1,0-2.876,2.934l1.892,1.892a2.054,2.054,0,0,0,2.905-2.9Zm-12.6-.512a9.02,9.02,0,1,1,7.722-4.37l-2.2-2.2a2.054,2.054,0,1,0-2.905,2.905L50.146,99.5A8.955,8.955,0,0,1,45.29,100.927Z" transform="translate(-23.358 -69.941)" fill="#57b2f6"/>
        <path id="Path_46389" data-name="Path 46389" d="M132.644,46.47H7.588A7.6,7.6,0,0,0,0,54.057V82.83a7.6,7.6,0,0,0,7.588,7.588H87.017a2.054,2.054,0,0,0,0-4.108H43.949V50.578h88.695a3.482,3.482,0,0,1,3.478,3.478V82.831a3.482,3.482,0,0,1-3.478,3.478H121.023a2.054,2.054,0,0,0-1.644.822l-6.655,8.876-6.658-8.876a2.054,2.054,0,0,0-1.643-.822H96.6a2.054,2.054,0,1,0,0,4.108H103.4l7.686,10.246a2.054,2.054,0,0,0,3.287,0l7.683-10.246h10.594a7.6,7.6,0,0,0,7.587-7.586V54.056a7.6,7.6,0,0,0-7.587-7.587ZM4.108,82.83V54.057a3.483,3.483,0,0,1,3.479-3.479H39.84V86.31H7.588A3.483,3.483,0,0,1,4.108,82.83Z" transform="translate(0 -46.469)" fill="#57b2f6"/>
        <path id="Path_46390" data-name="Path 46390" d="M255.286,121.254a2.054,2.054,0,0,0-2.054-2.054H184.894a2.054,2.054,0,1,0,0,4.108h68.338A2.054,2.054,0,0,0,255.286,121.254Z" transform="translate(-132.762 -99.28)" fill="#57b2f6"/>
        <path id="Path_46391" data-name="Path 46391" d="M328.916,90.983a2.054,2.054,0,1,0,0-4.108H278.838a2.054,2.054,0,0,0,0,4.108Z" transform="translate(-200.976 -75.808)" fill="#57b2f6"/>
        <path id="Path_46392" data-name="Path 46392" d="M184.894,90.983h16.047a2.054,2.054,0,1,0,0-4.108H184.894a2.054,2.054,0,1,0,0,4.108Z" transform="translate(-132.762 -75.808)" fill="#57b2f6"/>
        <path id="Path_46393" data-name="Path 46393" d="M250.554,155.633h41.224a2.054,2.054,0,1,0,0-4.108H250.554a2.054,2.054,0,0,0,0,4.108Z" transform="translate(-180.439 -122.751)" fill="#57b2f6"/>
        <path id="Path_46394" data-name="Path 46394" d="M184.894,151.525a2.054,2.054,0,0,0,0,4.108h8.3a2.054,2.054,0,0,0,0-4.108Z" transform="translate(-132.762 -122.751)" fill="#57b2f6"/>
        <path id="Path_46395" data-name="Path 46395" d="M405.58,298.629c-.007-.019-.014-.037-.022-.056a2.546,2.546,0,0,0-2.364-1.584h0a2.547,2.547,0,0,0-2.363,1.588c-.006.016-.013.031-.018.047L392.5,320.447a2.054,2.054,0,0,0,3.839,1.463L397.9,317.8h10.518l1.549,4.106a2.054,2.054,0,1,0,3.843-1.451Zm-6.111,15.059,3.719-9.763,3.684,9.763Z" transform="translate(-284.9 -228.375)" fill="#57b2f6"/>
        <path id="Path_46396" data-name="Path 46396" d="M132.643,264.662H7.587A7.6,7.6,0,0,0,0,272.25v28.772a7.6,7.6,0,0,0,7.587,7.589H18.181l7.683,10.243a2.053,2.053,0,0,0,1.643.822h0a2.054,2.054,0,0,0,1.643-.821l7.686-10.244h7.51a2.054,2.054,0,0,0,0-4.108H35.808a2.054,2.054,0,0,0-1.643.821L27.507,314.2l-6.656-8.874a2.054,2.054,0,0,0-1.643-.822H7.587a3.484,3.484,0,0,1-3.478-3.481V272.25a3.484,3.484,0,0,1,3.478-3.481H96.281V304.5H53.931a2.054,2.054,0,0,0,0,4.108h78.712a7.6,7.6,0,0,0,7.588-7.587V272.249a7.6,7.6,0,0,0-7.588-7.588Zm3.479,36.361a3.483,3.483,0,0,1-3.479,3.479H100.391V268.77h32.252a3.483,3.483,0,0,1,3.479,3.479Z" transform="translate(0 -204.901)" fill="#57b2f6"/>
        <path id="Path_46397" data-name="Path 46397" d="M66.7,341.5h68.338a2.054,2.054,0,0,0,0-4.108H66.7a2.054,2.054,0,0,0,0,4.108Z" transform="translate(-46.943 -257.715)" fill="#57b2f6"/>
        <path id="Path_46398" data-name="Path 46398" d="M91.562,307.124a2.054,2.054,0,0,0-2.054-2.054H39.43a2.054,2.054,0,1,0,0,4.108H89.508A2.054,2.054,0,0,0,91.562,307.124Z" transform="translate(-27.139 -234.242)" fill="#57b2f6"/>
        <path id="Path_46399" data-name="Path 46399" d="M273.672,309.178a2.054,2.054,0,1,0,0-4.108H257.625a2.054,2.054,0,1,0,0,4.108Z" transform="translate(-185.573 -234.242)" fill="#57b2f6"/>
        <path id="Path_46400" data-name="Path 46400" d="M100.039,373.829h41.224a2.054,2.054,0,1,0,0-4.108H100.039a2.054,2.054,0,1,0,0,4.108Z" transform="translate(-71.148 -281.186)" fill="#57b2f6"/>
        <path id="Path_46401" data-name="Path 46401" d="M294.209,369.721h-8.3a2.054,2.054,0,0,0,0,4.108h8.3a2.054,2.054,0,1,0,0-4.108Z" transform="translate(-206.11 -281.186)" fill="#57b2f6"/>
      </g>
    </g>
  </g>
</svg>
