<svg xmlns="http://www.w3.org/2000/svg" width="236" height="236" viewBox="0 0 236 236">
  <g id="Group_5411" data-name="Group 5411" transform="translate(-682 -423)">
    <g id="Ellipse_244" data-name="Ellipse 244" transform="translate(682 423)" fill="#57b2f6" stroke="#707070" stroke-width="1" opacity="0.1">
      <circle cx="118" cy="118" r="118" stroke="none"/>
      <circle cx="118" cy="118" r="117.5" fill="none"/>
    </g>
    <g id="customer-service" transform="translate(731 476.699)">
      <g id="Group_5332" data-name="Group 5332" transform="translate(0.002 22.314)">
        <g id="Group_5331" data-name="Group 5331" transform="translate(0)">
          <path id="Path_46384" data-name="Path 46384" d="M112.694,178.183l-5.166-15.5A15.62,15.62,0,0,0,95.5,152.256L80.59,149.542v-1.156a22.457,22.457,0,0,0,6.652-5.907h4.505a6.7,6.7,0,0,0,6.694-6.694V109.009a29.009,29.009,0,1,0-58.017,0v15.62a8.94,8.94,0,0,0,7.116,8.74,22.356,22.356,0,0,0,10.735,15.018v1.156l-14.915,2.713a15.617,15.617,0,0,0-12.023,10.427l-.893,2.68-7.6-7.6a2.236,2.236,0,0,1,0-3.157l8.814-8.812L15.116,129.25l-9.961,9.961a15.62,15.62,0,0,0,0,22.089l30.158,30.158a15.612,15.612,0,0,0,22.02.067L68.2,181.566l-3.39-3.383Zm-18.715-42.4a2.234,2.234,0,0,1-2.231,2.231H89.871a22.163,22.163,0,0,0,1.455-4.648,8.839,8.839,0,0,0,2.653-1.055Zm-2.231-7.315v-7.685a4.424,4.424,0,0,1,0,7.685Zm-44.629,0a4.424,4.424,0,0,1,0-7.685Zm0-15v2.548a8.851,8.851,0,0,0-2.231.924v-7.935a24.546,24.546,0,1,1,49.091,0v7.935a8.769,8.769,0,0,0-2.231-.924v-2.548H89.516a24.551,24.551,0,0,1-17.47-7.237l-2.613-2.613-2.613,2.613a24.551,24.551,0,0,1-17.47,7.237Zm4.463,15.62V117.849a28.93,28.93,0,0,0,17.851-7.93,28.918,28.918,0,0,0,17.851,7.93v11.242a17.717,17.717,0,0,1-2.414,8.926H69.433v4.463H81.2a17.823,17.823,0,0,1-29.62-13.389Zm24.546,21.286v.1l-6.694,6.694-6.694-6.694v-.1a22.3,22.3,0,0,0,13.389,0ZM35.569,164.094a11.161,11.161,0,0,1,8.589-7.451l15.6-2.834,9.678,9.678,9.675-9.675,15.6,2.834a11.157,11.157,0,0,1,8.589,7.451l3.211,9.624H60.349l-8.691-8.691L42,173.765a2.279,2.279,0,0,1-3.155,0l-4.873-4.873ZM15.113,135.56l10.233,10.233-2.423,2.423L12.69,137.984Zm39.128,52.746a11.159,11.159,0,0,1-15.778,0L8.305,158.147a11.159,11.159,0,0,1,0-15.778l1.227-1.227,10.233,10.233-.08.08a6.706,6.706,0,0,0,0,9.468l16,16a6.659,6.659,0,0,0,4.735,1.961A6.57,6.57,0,0,0,45.075,177l.167-.15,10.28,10.28Zm4.574-4.2L48.558,173.854l2.948-2.664,10.24,10.24Z" transform="translate(-0.58 -80)" fill="#57b2f6"/>
        </g>
      </g>
      <g id="Group_5334" data-name="Group 5334" transform="translate(93.401 0)">
        <g id="Group_5333" data-name="Group 5333">
          <path id="Path_46385" data-name="Path 46385" d="M373.362,0h-31.24a6.7,6.7,0,0,0-6.694,6.694V24.546a6.7,6.7,0,0,0,6.694,6.694h5.96L345.775,44.7,367.308,31.24h6.054a6.7,6.7,0,0,0,6.694-6.694V6.694A6.7,6.7,0,0,0,373.362,0Zm2.231,24.546a2.235,2.235,0,0,1-2.231,2.231h-7.335l-14.172,8.857,1.52-8.857H342.122a2.235,2.235,0,0,1-2.231-2.231V6.694a2.235,2.235,0,0,1,2.231-2.231h31.24a2.235,2.235,0,0,1,2.231,2.231Z" transform="translate(-335.428)" fill="#57b2f6"/>
        </g>
      </g>
      <g id="Group_5336" data-name="Group 5336" transform="translate(102.681 9.07)">
        <g id="Group_5335" data-name="Group 5335" transform="translate(0 0)">
          <rect id="Rectangle_1291" data-name="Rectangle 1291" width="26.453" height="4.535" fill="#57b2f6"/>
        </g>
      </g>
      <g id="Group_5338" data-name="Group 5338" transform="translate(102.681 18.139)">
        <g id="Group_5337" data-name="Group 5337" transform="translate(0 0)">
          <rect id="Rectangle_1292" data-name="Rectangle 1292" width="17.384" height="4.535" fill="#57b2f6"/>
        </g>
      </g>
      <g id="Group_5340" data-name="Group 5340" transform="translate(124.599 18.139)">
        <g id="Group_5339" data-name="Group 5339" transform="translate(0 0)">
          <rect id="Rectangle_1293" data-name="Rectangle 1293" width="4.535" height="4.535" fill="#57b2f6"/>
        </g>
      </g>
      <g id="Group_5342" data-name="Group 5342" transform="translate(0 6.694)">
        <g id="Group_5341" data-name="Group 5341" transform="translate(0)">
          <path id="Path_46386" data-name="Path 46386" d="M69.427,24a62.44,62.44,0,0,0-60.8,48.3L4.4,65.25l-3.827,2.3L8.415,80.616l13.069-7.843-2.3-3.827-6.047,3.628A58.032,58.032,0,0,1,86.618,31.051l1.321-4.262A62.439,62.439,0,0,0,69.427,24Z" transform="translate(-0.572 -24)" fill="#57b2f6"/>
        </g>
      </g>
      <g id="Group_5344" data-name="Group 5344" transform="translate(113.932 41.565)">
        <g id="Group_5343" data-name="Group 5343">
          <path id="Path_46387" data-name="Path 46387" d="M432.049,156.859l-13.069-7.843-7.841,13.072,3.827,2.3,3.905-6.509a58.067,58.067,0,0,1-9.834,55.279l3.465,2.812a62.488,62.488,0,0,0,10.693-59.213l6.558,3.934Z" transform="translate(-409.036 -149.016)" fill="#57b2f6"/>
        </g>
      </g>
    </g>
  </g>
</svg>
