<svg xmlns="http://www.w3.org/2000/svg" width="236" height="236" viewBox="0 0 236 236">
  <g id="Group_5412" data-name="Group 5412" transform="translate(-1130 -404)">
    <g id="Ellipse_245" data-name="Ellipse 245" transform="translate(1130 404)" fill="#57b2f6" stroke="#707070" stroke-width="1" opacity="0.1">
      <circle cx="118" cy="118" r="118" stroke="none"/>
      <circle cx="118" cy="118" r="117.5" fill="none"/>
    </g>
    <g id="client" transform="translate(1184 462.234)">
      <path id="Path_46402" data-name="Path 46402" d="M59.121,42.176H37.034a1.887,1.887,0,0,0,0,3.773H59.121A1.887,1.887,0,0,0,59.121,42.176Z" transform="translate(-26.316 -31.595)" fill="#57b2f6"/>
      <path id="Path_46403" data-name="Path 46403" d="M53.6,83.951H37.034a1.887,1.887,0,0,0,0,3.773H53.6A1.887,1.887,0,0,0,53.6,83.951Z" transform="translate(-26.316 -62.861)" fill="#57b2f6"/>
      <path id="Path_46404" data-name="Path 46404" d="M53.6,125.725H37.034a1.887,1.887,0,0,0,0,3.773H53.6A1.887,1.887,0,0,0,53.6,125.725Z" transform="translate(-26.316 -94.127)" fill="#57b2f6"/>
      <path id="Path_46405" data-name="Path 46405" d="M108.658,85.644h-.4a6.017,6.017,0,0,0-6.658-5.8A34.172,34.172,0,0,0,81.139,58.176a27.2,27.2,0,0,0,5.346-5.884H98.8a1.887,1.887,0,0,0,1.887-1.887V19.2A18.967,18.967,0,0,0,97.207,8.211a1.887,1.887,0,0,0-3.083,2.175A15.215,15.215,0,0,1,96.915,19.2V48.518H88.6a26.366,26.366,0,0,0,2.346-13.186A26.874,26.874,0,0,0,82.738,16.1,27.537,27.537,0,0,0,70.147,9.03,15.385,15.385,0,0,1,87.454,5.048,1.888,1.888,0,0,0,88.9,1.561,19.152,19.152,0,0,0,65.891,8.356,26.048,26.048,0,0,0,43.77,18.5V7.034A6.926,6.926,0,0,0,36.853.116H6.917A6.926,6.926,0,0,0,0,7.034V39.146a6.926,6.926,0,0,0,6.918,6.918H36.853a6.921,6.921,0,0,0,2.233-.372,27.207,27.207,0,0,0,8.571,12.484A34.17,34.17,0,0,0,27.194,79.855a6.016,6.016,0,0,0-6.655,5.788c-9.19-.392-9.533,13.874-.344,13.82l4.782,27.305a1.888,1.888,0,0,0,3.717-.651l-3.969-22.659,3.852,3.989a1.888,1.888,0,0,0,2.715-2.621L26.249,99.6h76.3L90.39,112.2l-.039.042a9,9,0,0,1-6.652,2.946H45.1a9.486,9.486,0,0,1-7.054-3.363,1.888,1.888,0,0,0-2.715,2.621,13.632,13.632,0,0,0,3.543,2.891l1.3,9.939c.311,2.369,4.062,1.955,3.741-.49l-1.051-8.021a12.7,12.7,0,0,0,2.233.2H83.7a12.7,12.7,0,0,0,2.233-.2l-1.051,8.021c-.308,2.351,3.419,2.951,3.741.49l1.3-9.938a12.742,12.742,0,0,0,3.2-2.536l10.948-11.338L100.1,126.117c-.409,2.336,3.29,3.091,3.717.651L108.6,99.463c8.985.053,9.014-13.819.056-13.819Zm-4.172.127a2.152,2.152,0,0,1-2.15,2.15H92.827a2.15,2.15,0,1,1,0-4.3h9.509A2.152,2.152,0,0,1,104.486,85.77ZM48.5,18.848C62.5,4.491,85.842,14.8,87.129,33.985a20.359,20.359,0,0,1-21.181-8.119,1.887,1.887,0,0,0-3.1,0,20.35,20.35,0,0,1-21.182,8.119A23.424,23.424,0,0,1,48.5,18.848ZM36.853,42.291H6.918a3.148,3.148,0,0,1-3.144-3.144V7.034A3.148,3.148,0,0,1,6.918,3.889H36.853A3.148,3.148,0,0,1,40,7.034V24.5a1.9,1.9,0,0,0,.027.319A26.993,26.993,0,0,0,37.851,35.33a25.979,25.979,0,0,0,.309,6.678A3.118,3.118,0,0,1,36.853,42.291Zm4.684-4.473A24.218,24.218,0,0,0,64.4,30.009a24.252,24.252,0,0,0,18.225,8.267,23.57,23.57,0,0,0,4.636-.459C87.3,49.851,76.45,60.675,64.4,60.451,52.348,60.676,41.494,49.848,41.537,37.818ZM51.586,60.853a26.169,26.169,0,0,0,25.625,0A30.39,30.39,0,0,1,97.62,79.847H92.827a5.93,5.93,0,0,0-5.922,5.8H41.892a5.93,5.93,0,0,0-5.922-5.788h-4.8a30.388,30.388,0,0,1,20.411-19ZM48.256,95.69V89.417H80.542V95.69ZM26.461,83.629H35.97a2.15,2.15,0,0,1,0,4.3H26.461A2.15,2.15,0,0,1,26.461,83.629ZM17,92.554a3.14,3.14,0,0,1,3.136-3.137,14.256,14.256,0,0,0,1.642-.011,5.916,5.916,0,0,0,4.68,2.3H35.97a5.916,5.916,0,0,0,4.671-2.285h3.841V95.69H20.139A3.14,3.14,0,0,1,17,92.554Zm91.655,3.136H84.315V89.417h3.847a5.917,5.917,0,0,0,4.664,2.276h9.509a5.917,5.917,0,0,0,4.673-2.288c2.027.223,3.916-.059,4.571,2.357A3.035,3.035,0,0,1,108.658,95.69Z" transform="translate(0 -0.114)" fill="#57b2f6"/>
      <path id="Path_46406" data-name="Path 46406" d="M30.237,283.663a1.887,1.887,0,1,0,1.887,1.887A1.886,1.886,0,0,0,30.237,283.663Z" transform="translate(-21.219 -212.334)" fill="#57b2f6"/>
      <path id="Path_46407" data-name="Path 46407" d="M72.164,285.55a1.887,1.887,0,1,0-1.887,1.887A1.886,1.886,0,0,0,72.164,285.55Z" transform="translate(-51.197 -212.334)" fill="#57b2f6"/>
      <path id="Path_46408" data-name="Path 46408" d="M29.777,207.928a1.887,1.887,0,1,0-1.887-1.887A1.887,1.887,0,0,0,29.777,207.928Z" transform="translate(-20.874 -152.837)" fill="#57b2f6"/>
      <path id="Path_46409" data-name="Path 46409" d="M29.777,247.928a1.887,1.887,0,1,0-1.887-1.887A1.886,1.886,0,0,0,29.777,247.928Z" transform="translate(-20.874 -182.774)" fill="#57b2f6"/>
      <path id="Path_46410" data-name="Path 46410" d="M432.679,42.02h-10.5a6.926,6.926,0,0,0-6.918,6.918V69.609a6.926,6.926,0,0,0,6.918,6.918h10.5a6.926,6.926,0,0,0,6.918-6.918V48.938A6.926,6.926,0,0,0,432.679,42.02Zm3.144,27.589a3.148,3.148,0,0,1-3.144,3.144h-10.5a3.148,3.148,0,0,1-3.144-3.144V48.938a3.148,3.148,0,0,1,3.144-3.144h10.5a3.148,3.148,0,0,1,3.144,3.144Z" transform="translate(-310.8 -31.478)" fill="#57b2f6"/>
      <path id="Path_46411" data-name="Path 46411" d="M453.035,123.465h-4.124a1.887,1.887,0,0,0,0,3.773h4.124A1.887,1.887,0,0,0,453.035,123.465Z" transform="translate(-334.583 -92.435)" fill="#57b2f6"/>
      <path id="Path_46412" data-name="Path 46412" d="M453.035,85.917h-4.124a1.887,1.887,0,0,0,0,3.773h4.124A1.887,1.887,0,0,0,453.035,85.917Z" transform="translate(-334.583 -64.333)" fill="#57b2f6"/>
      <path id="Path_46413" data-name="Path 46413" d="M429.075,247.42a1.887,1.887,0,1,0-1.887,1.887A1.887,1.887,0,0,0,429.075,247.42Z" transform="translate(-318.324 -183.796)" fill="#57b2f6"/>
      <path id="Path_46414" data-name="Path 46414" d="M387.147,245.533a1.887,1.887,0,1,0,1.887,1.887A1.887,1.887,0,0,0,387.147,245.533Z" transform="translate(-288.345 -183.796)" fill="#57b2f6"/>
      <path id="Path_46415" data-name="Path 46415" d="M466.527,244.913a1.887,1.887,0,1,0,1.887,1.887A1.887,1.887,0,0,0,466.527,244.913Z" transform="translate(-347.756 -183.332)" fill="#57b2f6"/>
      <path id="Path_46416" data-name="Path 46416" d="M466.527,204.913a1.887,1.887,0,1,0,1.887,1.887A1.887,1.887,0,0,0,466.527,204.913Z" transform="translate(-347.756 -153.394)" fill="#57b2f6"/>
    </g>
  </g>
</svg>
