<svg xmlns="http://www.w3.org/2000/svg" width="23.329" height="19.757" viewBox="0 0 23.329 19.757">
  <path id="Path_46341" data-name="Path 46341" d="M5.132,11.055v3.2a.965.965,0,0,1-.964.964H.964A.965.965,0,0,1,0,14.259v-3.2a.964.964,0,0,1,.964-.964h3.2A.965.965,0,0,1,5.132,11.055Zm17.232-.964H8.04a.965.965,0,0,0-.964.964v3.2a.965.965,0,0,0,.964.964H22.365a.965.965,0,0,0,.964-.964v-3.2A.966.966,0,0,0,22.364,10.091ZM4.168,2.779H.964A.964.964,0,0,0,0,3.743v3.2a.964.964,0,0,0,.964.964h3.2a.964.964,0,0,0,.964-.964v-3.2A.965.965,0,0,0,4.168,2.779Zm18.2,0H8.04a.965.965,0,0,0-.964.964v3.2a.965.965,0,0,0,.964.964H22.365a.964.964,0,0,0,.964-.964v-3.2A.966.966,0,0,0,22.364,2.779ZM4.168,17.4H.964A.964.964,0,0,0,0,18.368v3.2a.964.964,0,0,0,.964.964h3.2a.964.964,0,0,0,.964-.964v-3.2A.964.964,0,0,0,4.168,17.4Zm18.2,0H8.04a.965.965,0,0,0-.964.964v3.2a.964.964,0,0,0,.964.964H22.365a.964.964,0,0,0,.964-.964v-3.2A.965.965,0,0,0,22.364,17.4Z" transform="translate(0 -2.779)"/>
</svg>
