<svg xmlns="http://www.w3.org/2000/svg" width="15.997" height="11" viewBox="0 0 15.997 11">
  <g id="list-text" transform="translate(-0.001 -80)">
    <g id="Group_2637" data-name="Group 2637" transform="translate(3.005 80)">
      <g id="Group_2636" data-name="Group 2636" transform="translate(0 0)">
        <path id="Path_3700" data-name="Path 3700" d="M107.174,80H97.179a1,1,0,0,0,0,2h9.995a1,1,0,0,0,0-2Z" transform="translate(-96.18 -80)" fill="#ff8979"/>
      </g>
    </g>
    <g id="Group_2639" data-name="Group 2639" transform="translate(0.001 80.004)">
      <g id="Group_2638" data-name="Group 2638" transform="translate(0 0)">
        <path id="Path_3701" data-name="Path 3701" d="M2.005,81.13a1,1,0,0,0-2,0,.851.851,0,0,0,0,.195.9.9,0,0,0,.055.19,1.16,1.16,0,0,0,.095.17.914.914,0,0,0,.125.155.885.885,0,0,0,.15.12.814.814,0,0,0,.17.095.825.825,0,0,0,.21.075.877.877,0,0,0,.195,0,1,1,0,0,0,.7-.29.914.914,0,0,0,.125-.155,1.16,1.16,0,0,0,.095-.17.928.928,0,0,0,.075-.19A.851.851,0,0,0,2.005,81.13Z" transform="translate(-0.001 -80.135)" fill="#ff8979"/>
      </g>
    </g>
    <g id="Group_2641" data-name="Group 2641" transform="translate(0.006 84.502)">
      <g id="Group_2640" data-name="Group 2640" transform="translate(0 0)">
        <path id="Path_3702" data-name="Path 3702" d="M2.179,225.13a.854.854,0,0,0,0-.195.81.81,0,0,0-.075-.185,1,1,0,0,0-.095-.175.72.72,0,0,0-.125-.15,1,1,0,0,0-1.7.7,1,1,0,0,0,.165.555.959.959,0,0,0,.13.15.729.729,0,0,0,.15.125.81.81,0,0,0,.17.095.85.85,0,0,0,.19.055.83.83,0,0,0,.195.02.851.851,0,0,0,.195,0,.811.811,0,0,0,.185-.055.835.835,0,0,0,.175-.095.729.729,0,0,0,.15-.125.73.73,0,0,0,.125-.15.8.8,0,0,0,.095-.17.846.846,0,0,0,.075-.21A.827.827,0,0,0,2.179,225.13Z" transform="translate(-0.18 -224.135)" fill="#ff8979"/>
      </g>
    </g>
    <g id="Group_2643" data-name="Group 2643" transform="translate(0.006 89)">
      <g id="Group_2642" data-name="Group 2642">
        <path id="Path_3703" data-name="Path 3703" d="M2.177,369.13a.858.858,0,0,0,0-.195.851.851,0,0,0-.075-.19,1.16,1.16,0,0,0-.095-.17.729.729,0,0,0-.125-.15,1,1,0,0,0-1.409,0,.729.729,0,0,0-.125.15,1.16,1.16,0,0,0-.095.17.819.819,0,0,0-.055.19.859.859,0,0,0-.02.195,1,1,0,0,0,.295.7.73.73,0,0,0,.15.125.81.81,0,0,0,.17.095.849.849,0,0,0,.19.055.829.829,0,0,0,.195.02.853.853,0,0,0,.195,0,.811.811,0,0,0,.185-.055.835.835,0,0,0,.175-.095.73.73,0,0,0,.15-.125.73.73,0,0,0,.125-.15.8.8,0,0,0,.095-.17.848.848,0,0,0,.075-.21A.827.827,0,0,0,2.177,369.13Z" transform="translate(-0.178 -368.135)" fill="#ff8979"/>
      </g>
    </g>
    <g id="Group_2645" data-name="Group 2645" transform="translate(3.005 84.498)">
      <g id="Group_2644" data-name="Group 2644" transform="translate(0 0)">
        <path id="Path_3704" data-name="Path 3704" d="M108.174,224H97.179a1,1,0,0,0,0,2h10.994a1,1,0,0,0,0-2Z" transform="translate(-96.18 -224)" fill="#ff8979"/>
      </g>
    </g>
    <g id="Group_2647" data-name="Group 2647" transform="translate(3.005 88.995)">
      <g id="Group_2646" data-name="Group 2646" transform="translate(0 0)">
        <path id="Path_3705" data-name="Path 3705" d="M103.676,368h-6.5a1,1,0,0,0,0,2h6.5a1,1,0,0,0,0-2Z" transform="translate(-96.18 -368)" fill="#ff8979"/>
      </g>
    </g>
  </g>
</svg>
