<svg id="statistics" xmlns="http://www.w3.org/2000/svg" width="22.874" height="22.874" viewBox="0 0 22.874 22.874">
  <path id="Path_46346" data-name="Path 46346" d="M33.01,10.722a2,2,0,0,0,1.392-.565l1.984.992a1.969,1.969,0,0,0-.025.244,2.01,2.01,0,0,0,4.021,0,1.986,1.986,0,0,0-.2-.861L42.871,7.84a1.986,1.986,0,0,0,.861.2,2.013,2.013,0,0,0,2.01-2.01,1.98,1.98,0,0,0-.1-.6l2.338-1.753a2.009,2.009,0,1,0-.9-1.672,1.98,1.98,0,0,0,.1.6L44.845,4.359a2,2,0,0,0-2.922,2.533L39.233,9.583a1.976,1.976,0,0,0-2.253.364L35,8.955a1.969,1.969,0,0,0,.025-.244,2.01,2.01,0,1,0-2.01,2.01Zm0,0" transform="translate(-29.615)"/>
  <path id="Path_46347" data-name="Path 46347" d="M22.2,164.832h-.715V150.67a.67.67,0,0,0-.67-.67H18.138a.67.67,0,0,0-.67.67v14.162h-1.34V154.691a.67.67,0,0,0-.67-.67H12.777a.67.67,0,0,0-.67.67v10.141h-1.34v-4.78a.67.67,0,0,0-.67-.67H7.416a.67.67,0,0,0-.67.67v4.78H5.406v-7.461a.67.67,0,0,0-.67-.67H2.055a.67.67,0,0,0-.67.67v7.461H.67a.67.67,0,0,0,0,1.34H22.2a.67.67,0,0,0,0-1.34Zm0,0" transform="translate(0 -143.299)"/>
</svg>
