<svg id="_x37__7_" xmlns="http://www.w3.org/2000/svg" width="17.216" height="17.216" viewBox="0 0 17.216 17.216">
  <g id="Group_5391" data-name="Group 5391">
    <path id="Path_46425" data-name="Path 46425" d="M3.663,4.423a.538.538,0,1,0,.761-.761L3.282,2.521a.538.538,0,1,0-.761.761Zm.324,8.053-1.13,1.13a.533.533,0,0,0,.754.754l1.13-1.13a.533.533,0,0,0-.754-.754ZM8.608,2.69a.538.538,0,0,0,.538-.538V.538a.538.538,0,1,0-1.076,0V2.152A.538.538,0,0,0,8.608,2.69Zm5.176,1.5,1.13-1.13a.533.533,0,0,0-.754-.754l-1.13,1.13a.533.533,0,0,0,.754.754ZM2.152,8.07H.538a.538.538,0,1,0,0,1.076H2.152a.538.538,0,1,0,0-1.076Zm6.456,6.456a.538.538,0,0,0-.538.538v1.614a.538.538,0,0,0,1.076,0V15.064A.538.538,0,0,0,8.608,14.526Zm8.07-6.456H15.064a.538.538,0,1,0,0,1.076h1.614a.538.538,0,0,0,0-1.076Zm-3.125,4.723a.538.538,0,1,0-.761.761l1.141,1.141a.538.538,0,1,0,.761-.761ZM8.608,3.763a4.845,4.845,0,1,0,4.845,4.845A4.845,4.845,0,0,0,8.608,3.763Z"/>
  </g>
</svg>
