<svg xmlns="http://www.w3.org/2000/svg" width="9.199" height="12.544" viewBox="0 0 9.199 12.544">
  <g id="up-arrow_1_" data-name="up-arrow (1)" transform="translate(-68.264 0)">
    <g id="Group_2635" data-name="Group 2635" transform="translate(68.264 -0.001)">
      <path id="Path_3699" data-name="Path 3699" d="M77.4,4.334,73.009.059a.209.209,0,0,0-.292,0l-4.39,4.275a.209.209,0,0,0,0,.3L69.52,5.794a.209.209,0,0,0,.292,0l2.006-1.967v8.508a.209.209,0,0,0,.209.209H73.7a.209.209,0,0,0,.209-.209V3.826l2.006,1.967a.209.209,0,0,0,.292,0L77.4,4.633a.209.209,0,0,0,0-.3Z" transform="translate(-68.264 0.001)" fill="#02b01d"/>
    </g>
  </g>
</svg>
