<svg id="user" xmlns="http://www.w3.org/2000/svg" width="7.17" height="8.594" viewBox="0 0 7.17 8.594">
  <path id="Path_3593" data-name="Path 3593" d="M89.1,4.14a2,2,0,0,0,1.464-.606,2,2,0,0,0,.606-1.463A2,2,0,0,0,90.565.606a2.069,2.069,0,0,0-2.927,0,2,2,0,0,0-.606,1.463,2,2,0,0,0,.606,1.464A2,2,0,0,0,89.1,4.14Zm0,0" transform="translate(-85.57)" fill="#57b2f6"/>
  <path id="Path_3594" data-name="Path 3594" d="M7.152,249.773a5.113,5.113,0,0,0-.07-.543,4.279,4.279,0,0,0-.134-.546,2.7,2.7,0,0,0-.224-.509,1.922,1.922,0,0,0-.338-.441,1.492,1.492,0,0,0-.486-.305,1.68,1.68,0,0,0-.621-.112.63.63,0,0,0-.336.143l-.35.226a2.008,2.008,0,0,1-.453.2,1.76,1.76,0,0,1-1.109,0,2,2,0,0,1-.453-.2l-.351-.226a.629.629,0,0,0-.336-.143,1.678,1.678,0,0,0-.621.112,1.491,1.491,0,0,0-.486.305,1.922,1.922,0,0,0-.338.441,2.7,2.7,0,0,0-.224.509,4.288,4.288,0,0,0-.133.546,5.1,5.1,0,0,0-.07.543c-.011.164-.017.335-.017.507a1.427,1.427,0,0,0,.424,1.08,1.526,1.526,0,0,0,1.092.4H5.654a1.525,1.525,0,0,0,1.092-.4,1.426,1.426,0,0,0,.424-1.08C7.17,250.108,7.164,249.937,7.152,249.773Zm0,0" transform="translate(0 -243.165)" fill="#57b2f6"/>
</svg>
