<svg id="user" xmlns="http://www.w3.org/2000/svg" width="16.689" height="20.004" viewBox="0 0 16.689 20.004">
  <path id="Path_3593" data-name="Path 3593" d="M91.849,9.636a4.662,4.662,0,0,0,3.407-1.412,4.662,4.662,0,0,0,1.411-3.407,4.663,4.663,0,0,0-1.412-3.407,4.817,4.817,0,0,0-6.813,0,4.662,4.662,0,0,0-1.412,3.406,4.662,4.662,0,0,0,1.412,3.407A4.663,4.663,0,0,0,91.849,9.636Zm0,0" transform="translate(-83.631)"/>
  <path id="Path_3594" data-name="Path 3594" d="M16.649,253.036a11.9,11.9,0,0,0-.162-1.264,9.96,9.96,0,0,0-.311-1.271,6.281,6.281,0,0,0-.522-1.185,4.472,4.472,0,0,0-.788-1.027,3.473,3.473,0,0,0-1.132-.711,3.911,3.911,0,0,0-1.445-.261,1.466,1.466,0,0,0-.783.332c-.235.153-.509.33-.816.526a4.675,4.675,0,0,1-1.056.465,4.1,4.1,0,0,1-2.582,0A4.662,4.662,0,0,1,6,248.175c-.3-.194-.578-.371-.817-.526a1.464,1.464,0,0,0-.783-.332,3.907,3.907,0,0,0-1.445.262,3.472,3.472,0,0,0-1.132.711,4.475,4.475,0,0,0-.788,1.026A6.292,6.292,0,0,0,.513,250.5,9.983,9.983,0,0,0,.2,251.772a11.862,11.862,0,0,0-.162,1.265c-.027.383-.04.78-.04,1.181a3.322,3.322,0,0,0,.987,2.513,3.551,3.551,0,0,0,2.542.927h9.632a3.55,3.55,0,0,0,2.542-.927,3.32,3.32,0,0,0,.987-2.513C16.689,253.814,16.676,253.417,16.649,253.036Zm0,0" transform="translate(0 -237.654)"/>
</svg>
