<svg xmlns="http://www.w3.org/2000/svg" width="31.034" height="36.781" viewBox="0 0 31.034 36.781">
  <g id="verified" transform="translate(-40 0)">
    <path id="Path_4058" data-name="Path 4058" d="M70.148,5.956,56.068.11a1.437,1.437,0,0,0-1.1,0L40.886,5.956A1.437,1.437,0,0,0,40,7.283v7.107A24.061,24.061,0,0,0,54.974,36.675a1.437,1.437,0,0,0,1.086,0A24.061,24.061,0,0,0,71.034,14.389V7.283A1.437,1.437,0,0,0,70.148,5.956ZM68.16,14.389A21.192,21.192,0,0,1,55.517,33.784,21.193,21.193,0,0,1,42.874,14.389V8.242L55.517,2.993,68.16,8.242ZM53.929,19.232,60.1,13.057a1.437,1.437,0,1,1,2.032,2.032L54.945,22.28a1.437,1.437,0,0,1-2.032,0L48.9,18.265a1.437,1.437,0,0,1,2.032-2.032Z" transform="translate(0 0)" fill="#57b2f6"/>
  </g>
</svg>
