<svg xmlns="http://www.w3.org/2000/svg" width="52.437" height="18.761" viewBox="0 0 52.437 18.761">
  <path id="Path_3691" data-name="Path 3691" d="M-1529.083-1746.1c-.024.289,0,3.079,0,3.079a1.789,1.789,0,0,0,0,1.319c.3.59,0,1.281,0,1.709s.677-2.155,1.273-1.709,1.62,0,1.62,0-.671,1.033,0,1.709,2.006-1.709,2.006-1.709v-1.319l1.052-.85.907-1.013,1.807-1.98c.452-.495,1.9-1.656,1.9-1.656l2.02-1.969,1.181-1.332a3.488,3.488,0,0,1,1.546,1.332,8.135,8.135,0,0,0,2.054,1.969s-1.108-1.057.82,0a29.775,29.775,0,0,1,2.759,1.656s-.585.608,0,1.98,0,1.863,0,1.863v1.319h0a21.537,21.537,0,0,0,2.5-3.182l.887-1.215s1.268-.553,1.918-.765a8.074,8.074,0,0,0,1.941-1.656v-1.139s2.049-.626,2.83,0,.875,1.792,1.763,1.139,1.468-1.139,1.468-1.139.618-1.489,1.335,0,.454,3.315,1.349,2.8,3.655-2.8,3.655-2.8l1.352,1.139h3.734s.484,1.7,1.055,0,1.311-2.266,1.759-3.3.391-1.366.825-2.409a12.569,12.569,0,0,1,1-1.895l1.037-1.741" transform="translate(1529.735 1758.118)" fill="none" stroke="#000" stroke-width="1"/>
</svg>
