<svg xmlns="http://www.w3.org/2000/svg" width="52.56" height="21.88" viewBox="0 0 52.56 21.88">
  <path id="Path_3686" data-name="Path 3686" d="M-1528.715-1973.461l1.884.893h.866l.778.734v-1.628l1.1-1.061v-1.413h2.105l1.269-1.044.891-1.264s.337-.442.748-.989a5.53,5.53,0,0,1,.926-1.091,15.581,15.581,0,0,1,1.666-1.24h1.11s1.287-1.168,1.538,0-.018.4.912,1.24,1.27.216,1.418,1.091a1.19,1.19,0,0,0,1.638.989,13.467,13.467,0,0,0,1.42-.989s.892,1.853,1.711.989,2.942-.989,2.942-.989v.989l2.368-2.08s.619.009,1.342,0,1.814,0,1.814,0,1.279-.008,2.041,0,1.479,0,1.479,0l.8-1.24,1.43-1.733v-3.857l1.69-1.509h0a.893.893,0,0,0,1.675,0v-1.021l2.072-.958,1.608.958,1.044-.958,2.115-1.295a3.184,3.184,0,0,1,.851,1.295c.222.743-.568,1.77,0,1.979s-1.916-2.047,0,0,2.643,0,2.643,0,.282.4.9,0a7.531,7.531,0,0,0,1.193-1.021" transform="translate(1528.929 1992.553)" fill="none" stroke="#000" stroke-width="1"/>
</svg>
