<svg xmlns="http://www.w3.org/2000/svg" width="50.703" height="19.749" viewBox="0 0 50.703 19.749">
  <path id="Path_3685" data-name="Path 3685" d="M-1528.715-2025.9v6.122l.965-1.74h1.038s-.08,1.424,1.391,0a10.755,10.755,0,0,0,2.155-2.928l.846-1.454a5.216,5.216,0,0,0,1.459-.832c.974-.7,1.109-.633,1.286-1.323a3.6,3.6,0,0,0,0-1.467l2.368-2.474s-1.4-.83,0-1.626,2.367-1.491,2.9,0a24.91,24.91,0,0,0,1.578,3.3c.409.819.794.8.794.8s.124,1.525.985,1.467-1.461,2.764,1.777,0,5.382-2.27,5.382-2.27,1.241.2,1.444-.842a8.934,8.934,0,0,0,0-2.455h1.015l.848-1.421v-1.9h2.259s-.286.249,1.359,0,1.262-.244,2.345,0,1.541.626,2.371.76,1.516,1.463,2.17,1.142a4.106,4.106,0,0,1,2.033,0,1.525,1.525,0,0,0,.763,1.421c.862.491.711,2.056,1.7,1.626s1.089.287,2.753,0a18.327,18.327,0,0,1,4.155,0" transform="translate(1529.215 2037.595)" fill="none" stroke="#000" stroke-width="1"/>
</svg>
