<svg xmlns="http://www.w3.org/2000/svg" width="51.689" height="21.523" viewBox="0 0 51.689 21.523">
  <path id="Path_3694" data-name="Path 3694" d="M-1529.269-1611.6v1.7s-.621.3,0,.862-.9,1.152,0,2.54a4.925,4.925,0,0,1,1.094,2.927c.11,1.178-.293,1.17,0,2.066s-.675.829,0,1.787.676.63.775,1.723a18.539,18.539,0,0,1,0,2.492s1.181-.719,1.2-1.448,0-2.767,0-2.767.519-1.3,1.2,0,1.283,2.936,1.414,1.723a5.5,5.5,0,0,0,0-1.723s-.979-.541,0-1.787a4.245,4.245,0,0,0,1-2.066c.164-.4-.389-.567,0-1.421s-.879-.359,0-1.506a14.083,14.083,0,0,1,1.584-1.777s1.648-.545,1.907,0-.5.389,1.3,0,1.764-1.07,2.011,0-.439.325,0,1.777-.759,4.386,0,2.927a20.319,20.319,0,0,0,1.229-4.7s-.279.138,0-.762a7.38,7.38,0,0,0,0-2.566s-.765-.8,0-1.348a6.9,6.9,0,0,0,1.5-2.01s.16.329.962,2.01.583,2.534,1.2,3.052a10.686,10.686,0,0,1,1.392,1.624s-.634-.309,0,.881a2.771,2.771,0,0,1,0,2.4l1.307-4.046.827-.862,1.23-1.7s.876-.84,1.092,0-1.55,2.923,0,4.209a18.461,18.461,0,0,1,2.441,2.4v1.421h.866l1.922-1.421s3.544-1.119,3.731,0,.28,2.336,1.451,2.4,1.981-.139,2.719,0,3.388-.245,4.353,0a10.6,10.6,0,0,0,2.875,0s-2.151-.816,0,1.087.059.486,2.778,1.787,2.78.871,3.071,1.723" transform="translate(1530.056 1616.09)" fill="none" stroke="#000" stroke-width="1"/>
</svg>
