<svg xmlns="http://www.w3.org/2000/svg" width="50.967" height="18.497" viewBox="0 0 50.967 18.497">
  <path id="Path_3692" data-name="Path 3692" d="M-1529.237-1703.553s-.021,1.749,0,2.776a8.473,8.473,0,0,0,0,2.535c.271,1.491-.332,2.29,0,3.184a2.355,2.355,0,0,1,0,1.646s-.713-1.472,1.361,0,2.879,2.066,3.523.912a6.157,6.157,0,0,0,.974-2.558c.266-1.314-.367-1.3,0-2.2a10.884,10.884,0,0,0,0-3.516h1.024s.583-2.894,2.517-1.264,1.827,1.81,2.13,2.463-1.459.664,0,1.336,3.1-2.535,3.1-2.535v-2.776s-.025-.814,0-1.722,0-2.843,0-2.843,1.356-1.809,1.6,0a6.755,6.755,0,0,0,.755,2.843c.406.822.978,1.722.978,1.722l1.039,1.512v1.264a27.886,27.886,0,0,0,.952-2.776s.538,1.161.85,0,.781-2.451.781-2.451v-.738s.385-2.985,2.364,3.189,1.925,4.719,2.567,6.292,0-2.317,0-2.317l2.428-1.2a2.428,2.428,0,0,1,1.574,1.2c.628,1.058.93,2.36,1.52,2.317s.529-1,1.5,0,1.014,1.167,2.063,1.148,4.658,0,4.658,0,1.051-.687,1.792,0,1.563-.267,2.232,1.056a3.944,3.944,0,0,0,2.612,1.646h.9a7.287,7.287,0,0,1,1.064.912c.693.681-1.825-.313,1.276,1.117" transform="translate(1529.859 1709.425)" fill="none" stroke="#000" stroke-width="1"/>
</svg>
