<svg xmlns="http://www.w3.org/2000/svg" xmlns:xlink="http://www.w3.org/1999/xlink" width="52.17" height="18.776" viewBox="0 0 52.17 18.776">
  <defs>
    <clipPath id="clip-path">
      <rect width="52.17" height="18.776" fill="none"/>
    </clipPath>
  </defs>
  <g id="Repeat_Grid_1" data-name="Repeat Grid 1" clip-path="url(#clip-path)">
    <g transform="translate(-164.983 -377.992)">
      <path id="Path_3688" data-name="Path 3688" d="M-1529.1-1889.857l-1.165,7.855,2.009,3.927s-.894-5.15,0-5.941.577-4.738,1.238-2.064,1.447,4.744,1.716,5.657a6.287,6.287,0,0,1,0,2.348s.633,2.618.921,0,.777-5.941.777-5.941v-2.064l2.442-1.268h0c2.948-1.815,4.252-2.51,4.252-2.51s1.921.185,2.188.846a3.207,3.207,0,0,1,0,1.664s-.661-2.544.824,1.268,1.423,4.633,1.543,5.657a15.1,15.1,0,0,1,0,2.348c0,.587.816-2.164,1.4-2.348s.25.078.957-.744,5.128-.836,5.128-.836l2.312-.815.855.815.729-.815v-3.262l-.729-2.932s1.025,2.461.729-.846-.225-3.007,0-4.035,1.586,1.423,1.586,1.423.5,2.375.883,2.612.349-.272.936.846,4.859,0,4.859,0,.375-1.061.726-1.995a1.673,1.673,0,0,0,0-1.464l2.213-1.423s.706-1.743,1.392,0,1.73,1.423,1.73,1.423h.865s-.415-.766.914,1.464.462.081,1.893,1.995,1.487,2.506,1.961,2.932.3,1.734.8,2.064a13.645,13.645,0,0,1,1.278,1.2" transform="translate(1695.764 2273.166)" fill="none" stroke="#000" stroke-width="1"/>
    </g>
  </g>
</svg>
