<svg xmlns="http://www.w3.org/2000/svg" width="49.533" height="19.694" viewBox="0 0 49.533 19.694">
  <path id="Path_3693" data-name="Path 3693" d="M-1529.216-1646.18l1.219,2.288s.051,1.119,1.8.907,1.339-.73,2.556-.907,1.026.765,2.516,0a25.067,25.067,0,0,1,3.914-1.484c.642-.2-.363-1.147,2.2-.8a34.037,34.037,0,0,1,3.823.8c.689.081.121.362,1.617,0a6.656,6.656,0,0,0,2.117-.8h1.57s.222-.917.808-1.08,1.9-.825,2.532-1.1,0-1.769,0-1.769-.777-.505,0-1.569a3.618,3.618,0,0,0,.914-2.485,18.367,18.367,0,0,1,1.26-3.728v-.844l.851-1.217v-1.247s.656-.925,1.141,0,.454.613,1.019,1.247a10.87,10.87,0,0,0,1.161,1.217,4.2,4.2,0,0,0,1.665.844h.774s-1.5,1.463,0-.844,3.2-2.464,3.2-2.464a2.163,2.163,0,0,0,1.685,1.247,5.628,5.628,0,0,0,2.472,0s1.547-.592,1.636,1.217a20.567,20.567,0,0,1,0,2.709,1.985,1.985,0,0,0,0,1.862c.534.943,2.683,5.063,2.683,5.063s-.418-.354,1.877,0" transform="translate(1529.658 1662.152)" fill="none" stroke="#000" stroke-width="1"/>
</svg>
