<svg xmlns="http://www.w3.org/2000/svg" width="53.714" height="18.23" viewBox="0 0 53.714 18.23">
  <path id="Path_3698" data-name="Path 3698" d="M-1528.726-1413.735s-.144-.211,0,.8-1.12.822,0,1.8a4.59,4.59,0,0,1,1.367,1.737s-1.429.565,0,.957,1.528.251,2.08,0-1.142.668,1.1-.957a6.47,6.47,0,0,0,2.423-2.505c.645-.77-.126,1.414.986-1.037a19.047,19.047,0,0,0,1.388-3.953s-.542-.106,0-.959a13.782,13.782,0,0,0,1.026-2.473c.473-1.139,1.135-2.36,1.135-2.36s-.322-5.349.725-1.2a54.835,54.835,0,0,1,1.359,7.688,6.1,6.1,0,0,0,.961-2.971,26.567,26.567,0,0,1,0-3.52v-1.2a10.6,10.6,0,0,1,.673,2.31c.376,1.743.88,3.719.88,3.719s-.676.372,0,1.659,1.846,3.254,1.846,3.254-1.264.858.839,1.037,2.021-1.1,2.289-1.838a7.173,7.173,0,0,0,0-2.452s-.692-.345,0-.7a21.679,21.679,0,0,0,2.643-2.271v1.312a.929.929,0,0,0,0,.959c.273.634-.55.62,0,1.448s1.122,1.7,1.122,1.7v-2.452s-.749-.431,0-1.659.368-2.034.829-2.473,1.174-1.246,1.174-1.246.664-1.557.857,0a21.57,21.57,0,0,1,0,3.719h.722l2.142,1.659h3.16l1.334-.7a5.05,5.05,0,0,1,1.161,1.448,3.481,3.481,0,0,1,0,1.7v.8l1.44-3.953a4.7,4.7,0,0,1,1.822.7c.512.471.325.115,1.229.749s.423,1.423,1.847,1.7-.524.882,3.182.8,4.246.154,4.755-.8a16.724,16.724,0,0,1,1.885-2.452" transform="translate(1529.693 1425.971)" fill="none" stroke="#000" stroke-width="1"/>
</svg>
