<svg xmlns="http://www.w3.org/2000/svg" width="54.417" height="17.011" viewBox="0 0 54.417 17.011">
  <path id="Path_3690" data-name="Path 3690" d="M-1530.263-1788.07l1.88,1.581s-1.379.568,0,.825,1.763.968,2.253,0a21.339,21.339,0,0,0,1.041-3.152l1.657-1.6v-1.132s.372.239,1.881,0a6.314,6.314,0,0,1,2.4,0h0l1.985-3.078v-1.885a7.24,7.24,0,0,0,1.082-1.425,14.531,14.531,0,0,0,.759-2.262s-.228-1.555,0-.823.493,5.012.753,5.631.335-.65.736.765a14.123,14.123,0,0,0,1.469,3.078v1.132h.988l2.911-1.132v1.132s.453,1.628,1.087,0,1.026-3.072,1.026-3.072v-1.138s2.121-1.517,2.257-.765-.827.792,0,1.9,1.427,0,1.427,0v-1.138s.778-1.117,1.41-.765.56-.4,1.946,0,1.818.939,2.165,0,.807-1.12.807-1.12.95-1.241.981,0,0,1.885,0,1.885a9,9,0,0,0,1.1,1.138c.761.687.524-.366,1.648,0a3.085,3.085,0,0,0,2,0v-1.138l.921-.765.874-2.545a25.73,25.73,0,0,1,2.1-3.085l1.021.823s-1.251.554,0,1.022.82-.575,1.9,0,1.863-.429,2.5,0,1.956,1.24,1.956,1.24.335,1.683,1.035,1.425a5.054,5.054,0,0,1,2.036,0" transform="translate(1530.585 1801.729)" fill="none" stroke="#000" stroke-width="1"/>
</svg>
