<svg xmlns="http://www.w3.org/2000/svg" width="51.62" height="17.294" viewBox="0 0 51.62 17.294">
  <path id="Path_3696" data-name="Path 3696" d="M-1529.563-1519.317v4.178s.606,1.236.86,1.716-.8-.229,0,1.121-2.165,2.54,1.226,2.229,3.709.229,4.521-1.127,1.273-2.222,1.273-2.222l2-.729a16.407,16.407,0,0,1,1.954,0,6.191,6.191,0,0,0,1.279,0s-.687-.016,0,.729-1.039.736.84,1.121,1.923,0,1.923,0a5.654,5.654,0,0,1,0-1.121,16.579,16.579,0,0,0,0-1.716v-1.133h2.1l1.728,2.12s.356-.008.807.729,1.2,1.773,1.167,2.222a26.113,26.113,0,0,0,1.075-2.952v-.987s.211-.581,1.153,0a12.2,12.2,0,0,1,1.62.987c.915.679.653.61,1.552.729a1.074,1.074,0,0,0,1.254-.729c.18-.3-.5-1.662,0-2.12s0-1.516,0-1.516v-.645l1.053,4.281s-1.282.743,0,1.85.926-.083,2.012,2.229.875.352,1.185,2.986-.66,2.97,0,3.54.722,1.332,1.078,0-.471-1.054,0-1.935-.447-1.261,0-2.327-.473-1.511,0-2.264a8.957,8.957,0,0,0,.793-2.229l1.017-2.342.215-.5s.437.84.761,0,0-1.133,0-1.133,1.563-3.181,2.069-1.516a12.531,12.531,0,0,0,.866,2.649c.891,2.194.585,2.106,1.178,2.838a1.056,1.056,0,0,0,1.587,0,5.07,5.07,0,0,0,.821-2.342c.1-1.033,0,1.221,0,1.221l1.049,9.875,1.175-1.935s-1.272.876,0-.892a11.77,11.77,0,0,0,1.408-2.321c.3-.5-.708-.984,0-1.378a1.818,1.818,0,0,0,.856-1.127v-1.1s.914-1.474,1.1-1.85-.009-.925.892-.987.986.56,1.248.987" transform="translate(1530.063 1519.317)" fill="none" stroke="#000" stroke-width="1"/>
</svg>
