<svg xmlns="http://www.w3.org/2000/svg" width="52.829" height="21.249" viewBox="0 0 52.829 21.249">
  <path id="Path_3687" data-name="Path 3687" d="M-1528.742-1941.646c.247,1-.434,1.737,0,2.57a7.348,7.348,0,0,1,.944,2.288c.227,1.064-.67,1.3,0,1.939a3.065,3.065,0,0,1,.936,2.316c0,.874-.186,1.084,0,1.626s-.318,1.064,0,1.621-.645,1.169,0,1.917.414,1.273,1.106,1.648,1.4.825,1.4.825l1.766-3.474s-.709.093,0-.917a4.988,4.988,0,0,0,.835-1.621s-.781-1.287,0-1.626a3.6,3.6,0,0,1,1.98,0s.731,1.187,1.466-.794,2.71-7.462,2.71-7.462l.782-2.083s1.417-2.7,1.48-1.909-.411,1.6,0,3.134-1.083-.191,0,2.57a30.594,30.594,0,0,1,1.536,5.75v.794h.9l1.617-.794,1.714-2.289s1.04-2.239,1.12-1.172-.115-.2,0,1.939,1.579-1.939,1.579-1.939l1.229-.868h1.254l3.138-1.42s-1.276,1.127,0,1.42,3.067-.374,4.046.868,1.017.544,1.96,1.172.32.72,1.775.767,3.337-.148,4.347,0-.02,1.211,1.79,0,1.794-1.341,2.149-1.939,0-.868,0-.868,1.307-1.394,1.342-2.248,0-2.967,0-2.967a6.4,6.4,0,0,1,1.707,2.967c.5,1.9.216,1.1.938,2.248a23.836,23.836,0,0,0,2.293,2.807" transform="translate(1529.371 1945.425)" fill="none" stroke="#000" stroke-width="1"/>
</svg>
