<svg xmlns="http://www.w3.org/2000/svg" width="50.902" height="19.485" viewBox="0 0 50.902 19.485">
  <path id="Path_3684" data-name="Path 3684" d="M-1528.715-2066.983h1.633l1.615.722.854-.722v-1.417l.81-1.73v-1.419l2.619-2.028s-.682-1.281,0-1.9,1.184-.9,1.771-1.534a5.464,5.464,0,0,0,1.069-1.635c.479-.9,1.326-2.653,1.326-2.653h2.291l3.816,2.653,1.317,1.635,1.165-1.635.929-1.642v-1.011s1.08-1.58,2.737,0,1.432.221,1.941,0,1.711-2.16,1.711-2.16a.79.79,0,0,1,.911-.992c1.138.053,1.757-.15,2.9,0a10.051,10.051,0,0,0,2.289,0s-.248-.876.8.992,1.47,2.484,1.8,3.171.4,1.75.974,1.642a4.554,4.554,0,0,1,1.287,0v1.635a4.555,4.555,0,0,1,1.314-1.635c.727-.424,1.335-.81,1.335-.81s.8-1.63,1.543-.832,1.957,0,1.957,0a2.462,2.462,0,0,1,1.07-1.011,9.1,9.1,0,0,0,1.6-.865s.211.368,1.385,0a2.738,2.738,0,0,1,1.918,0" transform="translate(1528.715 2085.161)" fill="none" stroke="#000" stroke-width="1"/>
</svg>
