<svg id="btc_1_" data-name="btc (1)" xmlns="http://www.w3.org/2000/svg" width="23" height="23" viewBox="0 0 23 23">
  <g id="Group_2628" data-name="Group 2628">
    <g id="bch">
      <circle id="Ellipse_209" data-name="Ellipse 209" cx="11.5" cy="11.5" r="11.5" fill="#57b2f6"/>
      <path id="Path_3633" data-name="Path 3633" d="M15.243,7.571c-.558-1.417-1.956-1.545-3.585-1.229l-.58-2.022-1.231.353.565,1.969c-.323.092-.653.194-.98.295L8.864,4.955l-1.23.352.579,2.022c-.265.082-.525.162-.78.236l0-.007-1.7.487L6.111,9.36s.9-.279.893-.257a.66.66,0,0,1,.862.336l.661,2.3a1.094,1.094,0,0,1,.132-.029l-.13.037.925,3.227a.452.452,0,0,1-.345.541c.019.009-.9.256-.9.256l.178,1.54,1.6-.46c.3-.084.593-.163.881-.244l.587,2.045,1.229-.352-.58-2.023q.495-.131.986-.273l.576,2.015,1.231-.353-.585-2.041c2.035-.712,3.334-1.649,2.956-3.644a2.18,2.18,0,0,0-2.495-2.038,1.979,1.979,0,0,0,.461-2.372Zm-.467,4.866c.438,1.529-2.228,2.105-3.062,2.345l-.777-2.71c.834-.239,3.381-1.229,3.838.365ZM13.106,8.779c.4,1.391-1.831,1.854-2.526,2.053l-.7-2.457c.694-.2,2.814-1.046,3.23.4Z" fill="#fff"/>
    </g>
  </g>
</svg>
