<svg id="btc_1_" data-name="btc (1)" xmlns="http://www.w3.org/2000/svg" width="23" height="23" viewBox="0 0 23 23">
  <circle id="Ellipse_199" data-name="Ellipse 199" cx="11.5" cy="11.5" r="11.5" fill="#57b2f6"/>
  <path id="Path_3617" data-name="Path 3617" d="M18.755,11.654c.221-1.478-.9-2.272-2.443-2.8l.5-2-1.218-.3L15.106,8.5c-.32-.08-.649-.155-.976-.23L14.62,6.3,13.4,6l-.5,2c-.265-.061-.526-.12-.778-.183V7.812l-1.681-.419-.324,1.3s.9.207.885.22a.649.649,0,0,1,.568.709L11.005,11.9a1.084,1.084,0,0,1,.127.04L11,11.912l-.8,3.2a.444.444,0,0,1-.559.289c.013.018-.885-.221-.885-.221l-.6,1.395,1.586.4c.295.074.584.152.868.224l-.5,2.025,1.218.3.5-2c.333.09.656.173.972.252l-.5,1.994,1.218.3.5-2.021c2.078.393,3.641.235,4.3-1.645a2.138,2.138,0,0,0-1.12-2.955,1.942,1.942,0,0,0,1.556-1.789Zm-2.785,3.9c-.376,1.514-2.924.7-3.751.49l.67-2.683C13.715,13.573,16.364,13.981,15.97,15.559Zm.377-3.926c-.343,1.377-2.464.677-3.151.505L13.8,9.706c.687.171,2.9.491,2.545,1.927Z" transform="translate(-2.406 -1.77)" fill="#fff"/>
</svg>
