<svg id="btc_1_" data-name="btc (1)" xmlns="http://www.w3.org/2000/svg" xmlns:xlink="http://www.w3.org/1999/xlink" width="23" height="23" viewBox="0 0 23 23">
  <defs>
    <clipPath id="clip-path">
      <circle id="Ellipse_199" data-name="Ellipse 199" cx="11.5" cy="11.5" r="11.5" fill="#f7931a"/>
    </clipPath>
  </defs>
  <g id="Mask_Group_13" data-name="Mask Group 13" clip-path="url(#clip-path)">
    <g id="btg">
      <circle id="Ellipse_212" data-name="Ellipse 212" cx="11.5" cy="11.5" r="11.5" fill="#eba809"/>
      <path id="Path_3636" data-name="Path 3636" d="M11.5,19.406A7.906,7.906,0,1,1,19.406,11.5,7.906,7.906,0,0,1,11.5,19.406ZM10.79,4.844q0,.943,0,1.887h.942c0-.645,0-1.29,0-1.935-.314.011-.63.026-.943.047Zm2.266,1.917a4.476,4.476,0,0,1,2.377.8,2.207,2.207,0,0,1-.356,3.455,2.1,2.1,0,0,1,1.651,1.439,3.034,3.034,0,0,1-.768,2.951,5.2,5.2,0,0,1-2.906.848c0,.588,0,1.176,0,1.765a6.814,6.814,0,0,0,4.7-4.108,6.675,6.675,0,0,0-.476-5.793,6.872,6.872,0,0,0-4.217-3.132q-.006.889,0,1.778ZM6.769,6.736c.913.043,1.826.035,2.738.033,0-.555,0-1.11,0-1.665A7.891,7.891,0,0,0,6.768,6.736ZM5.7,8.166a6.658,6.658,0,0,0-.3,6.089,6.816,6.816,0,0,0,4.1,3.639c0-.553,0-1.108,0-1.662-.916-.009-1.835.024-2.749-.025a4.626,4.626,0,0,1,.3-1.489,4.467,4.467,0,0,0,1.35-.077c.253-.213.181-.564.194-.855-.013-1.663.007-3.327-.009-4.99a.578.578,0,0,0-.431-.611,7.379,7.379,0,0,0-1.4-.058A8.86,8.86,0,0,1,6.7,7a.279.279,0,0,0-.051-.221c-.263.5-.681.893-.947,1.391Zm5.125.073v2.452a4.429,4.429,0,0,0,2.447-.4,1.047,1.047,0,0,0-.058-1.725,4.808,4.808,0,0,0-2.388-.328Zm0,3.772v2.72c1.012-.082,2.148.088,3.028-.522a1.1,1.1,0,0,0-.095-1.813,5.828,5.828,0,0,0-2.932-.386Zm-.037,4.259q0,.943,0,1.888c.328.022.655.035.983.043,0-.643,0-1.287,0-1.931h-.981Z" fill="#fff" fill-rule="evenodd"/>
    </g>
  </g>
</svg>
