<svg id="btc_1_" data-name="btc (1)" xmlns="http://www.w3.org/2000/svg" width="23" height="23" viewBox="0 0 23 23">
  <g id="Group_2630" data-name="Group 2630">
    <g id="doge">
      <path id="Path_3660" data-name="Path 3660" d="M11.5,0A11.5,11.5,0,1,1,0,11.5,11.5,11.5,0,0,1,11.5,0Z" fill="#57b2f6"/>
      <path id="Path_3628" data-name="Path 3628" d="M9.522,10.5h3.1v1.643h-3.1v3.463h1.956a4.895,4.895,0,0,0,1.9-.314,2.778,2.778,0,0,0,1.161-.87,3.162,3.162,0,0,0,.572-1.3,8.754,8.754,0,0,0,0-3.237,3.16,3.16,0,0,0-.572-1.3,2.782,2.782,0,0,0-1.161-.87,4.895,4.895,0,0,0-1.9-.314H9.522V10.5ZM7.534,12.144H6.469V10.5H7.534V5.75h4.707A5.253,5.253,0,0,1,14.5,6.2a4.21,4.21,0,0,1,1.558,1.233,5.3,5.3,0,0,1,.9,1.828,8.663,8.663,0,0,1,0,4.478,5.276,5.276,0,0,1-.9,1.828A4.2,4.2,0,0,1,14.5,16.8a5.244,5.244,0,0,1-2.258.451H7.534Z" fill="#fff" fill-rule="evenodd"/>
    </g>
  </g>
</svg>
