<svg id="btc_1_" data-name="btc (1)" xmlns="http://www.w3.org/2000/svg" xmlns:xlink="http://www.w3.org/1999/xlink" width="23" height="23" viewBox="0 0 23 23">
  <defs>
    <clipPath id="clip-path">
      <circle id="Ellipse_199" data-name="Ellipse 199" cx="11.5" cy="11.5" r="11.5" fill="#f7931a"/>
    </clipPath>
  </defs>
  <g id="Mask_Group_4" data-name="Mask Group 4" clip-path="url(#clip-path)">
    <g id="hot">
      <circle id="Ellipse_203" data-name="Ellipse 203" cx="11.5" cy="11.5" r="11.5" fill="#8834ff"/>
      <path id="Path_3627" data-name="Path 3627" d="M5.031,15.259c.137,0,.282.007.419,0a4.567,4.567,0,0,0,.778-.137,3.949,3.949,0,0,0,1.386-.694c.118-.091.235-.189.346-.294a3.715,3.715,0,0,0,.6-.791,3.67,3.67,0,0,0,.327-.811c.006-.019.006-.046.013-.065H7.875a2.947,2.947,0,0,1-.634-.072.178.178,0,0,0-.059-.013.094.094,0,0,1-.027-.02c.059-.13.111-.254.164-.385l.4-.922a.433.433,0,0,1,.058-.124.149.149,0,0,1,.1-.04c.321-.006.634,0,.954,0h.085c-.013-.052-.013-.091-.026-.137a3.365,3.365,0,0,0-.6-1.217,4.619,4.619,0,0,0-.451-.5,3.354,3.354,0,0,0-.673-.491,4.558,4.558,0,0,0-.8-.353,4.248,4.248,0,0,0-.706-.157c-.19-.02-.373-.027-.562-.04a.975.975,0,0,1-.137-.013.059.059,0,0,1-.04-.04c-.065-.15-.131-.294-.2-.444-.079-.177-.151-.353-.229-.523-.059-.144-.124-.28-.19-.431l.137-.04a4.942,4.942,0,0,1,.876-.039,6.28,6.28,0,0,1,1.386.2,6.485,6.485,0,0,1,.85.294,5.776,5.776,0,0,1,1.092.608c.15.111.3.229.444.346.065.052.13.111.2.17a5.589,5.589,0,0,1,.857,1.059,4.558,4.558,0,0,1,.536,1.242c.039.144.065.295.1.438a.057.057,0,0,0,.052.039h1.327c.027-.1.046-.209.065-.314a5.1,5.1,0,0,1,.314-.883A3.806,3.806,0,0,1,12.928,9a6.888,6.888,0,0,1,.438-.556,4.119,4.119,0,0,1,.372-.386,5.954,5.954,0,0,1,.889-.667,5.471,5.471,0,0,1,1.026-.5c.249-.085.5-.163.745-.229a5.285,5.285,0,0,1,.569-.1c.157-.026.321-.039.484-.052.1-.006.2-.013.308-.013.157,0,.307-.006.457,0a3.732,3.732,0,0,1,.451.065c.006,0,.006.007.019.019l-.111.262c-.117.275-.235.549-.359.83q-.071.148-.131.3c-.026.065-.091.039-.137.052a.29.29,0,0,1-.111,0,4.534,4.534,0,0,0-1.928.451,3.844,3.844,0,0,0-.785.51,4,4,0,0,0-.3.267,3.579,3.579,0,0,0-.6.8,3.918,3.918,0,0,0-.313.765c-.007.019-.007.046-.014.065h.072c.34,0,.686-.007,1.026,0a1.9,1.9,0,0,1,.6.1c.007.007.013.007.019.014l-.189.431c-.131.307-.268.615-.4.928-.04.092-.065.111-.17.111H13.9c.027.091.046.17.072.249a3.231,3.231,0,0,0,.386.778,4.833,4.833,0,0,0,.314.405,2.2,2.2,0,0,0,.208.222,3.872,3.872,0,0,0,.811.6,4.242,4.242,0,0,0,.791.352,3.4,3.4,0,0,0,.817.177l.516.04c.065.007.131.007.2.013a.068.068,0,0,1,.033.027c.111.261.222.523.34.784l.28.64a1.825,1.825,0,0,1-.267.046c-.223.013-.451.026-.673.026a4.62,4.62,0,0,1-.6-.045q-.408-.058-.811-.144a6.116,6.116,0,0,1-.942-.314,5.7,5.7,0,0,1-1.032-.575q-.253-.187-.5-.386a3.06,3.06,0,0,1-.3-.281,5.3,5.3,0,0,1-1.006-1.437,4.352,4.352,0,0,1-.327-.988.7.7,0,0,1-.027-.1c0-.065-.032-.078-.091-.078h-1.32a4.825,4.825,0,0,1-.314,1.033,4.113,4.113,0,0,1-.438.8q-.205.289-.438.556a3.344,3.344,0,0,1-.366.379c-.2.177-.418.34-.634.5a5.187,5.187,0,0,1-.824.478,5.838,5.838,0,0,1-1.7.51c-.2.032-.405.052-.607.072a3.062,3.062,0,0,1-.346,0c-.17,0-.34-.007-.5-.013a1.613,1.613,0,0,1-.177-.027c-.033-.006-.046-.019-.027-.058.131-.3.268-.6.4-.9.079-.183.151-.352.235-.542Z" fill="#fff"/>
    </g>
  </g>
</svg>
