<svg id="btc_1_" data-name="btc (1)" xmlns="http://www.w3.org/2000/svg" width="23" height="23" viewBox="0 0 23 23">
  <g id="Group_2632" data-name="Group 2632">
    <g id="xem">
      <path id="Path_3670" data-name="Path 3670" d="M11.5,0A11.5,11.5,0,1,1,0,11.5,11.5,11.5,0,0,1,11.5,0Z" fill="#57b2f6"/>
      <path id="Path_3635" data-name="Path 3635" d="M4.417,8.592a14.253,14.253,0,0,1-.1-1.666A14.5,14.5,0,0,1,11.8,5.034c.408.008,1,.053,1.448.1a4.316,4.316,0,0,0-2.2,3.012,4.527,4.527,0,0,0-.075.71,3.92,3.92,0,0,1-.129.972,3.256,3.256,0,0,1-6.087.483,1.06,1.06,0,0,1-.072-.216,14.5,14.5,0,0,1-.262-1.505Zm11.941,6.152c-.171.266-.352.525-.541.78a4.333,4.333,0,0,0-2.067-3.7l-.065-.04-.107-.065a3.188,3.188,0,0,1-1.491-2.186A3.254,3.254,0,0,1,16.27,5.839a11.574,11.574,0,0,1,1.443.58c.316.149.635.314.975.506a14.539,14.539,0,0,1-2.33,7.819Zm-2.183,2.64A14.75,14.75,0,0,1,11.5,19.406q-.374-.216-.731-.459a14.645,14.645,0,0,1-5.238-6.269,4.228,4.228,0,0,0,1.739.564,4.332,4.332,0,0,0,2.6-.556,3.319,3.319,0,0,1,1.226-.409,3.249,3.249,0,0,1,3.523,2.3,3.2,3.2,0,0,1-.2,2.377c-.032.066-.059.119-.124.247l-.032.063a.418.418,0,0,1-.085.116Z" fill="#fff" fill-rule="evenodd"/>
    </g>
  </g>
</svg>
